solid HUAYU BIG FAN to MSI Pulse76 v1.001
facet normal 0.000000 -1.000000 0.000000
outer loop
vertex -183.998001 -58.083847 6.638592
vertex -180.571030 -58.083847 6.638592
vertex -183.998001 -58.083847 19.638592
endloop
endfacet
facet normal 0.000000 -1.000000 0.000000
outer loop
vertex -183.998001 -58.083847 19.638592
vertex -180.571030 -58.083847 6.638592
vertex -180.571030 -58.083847 19.638592
endloop
endfacet
facet normal 0.000000 -1.000000 0.000000
outer loop
vertex -123.424980 -58.083847 6.638592
vertex -119.998009 -58.083847 6.638592
vertex -123.424980 -58.083847 19.638592
endloop
endfacet
facet normal 0.000000 -1.000000 0.000000
outer loop
vertex -123.424980 -58.083847 19.638592
vertex -119.998009 -58.083847 6.638592
vertex -119.998009 -58.083847 19.638592
endloop
endfacet
facet normal 0.000000 0.000000 1.000000
outer loop
vertex -123.424980 -58.083847 19.638592
vertex -119.998009 -58.083847 19.638592
vertex -123.612976 -58.037411 19.638592
endloop
endfacet
facet normal 0.000000 0.000000 1.000000
outer loop
vertex -123.612976 -58.037411 19.638592
vertex -119.998009 -58.083847 19.638592
vertex -123.804588 -58.009377 19.638592
endloop
endfacet
facet normal 0.000000 0.000000 1.000000
outer loop
vertex -123.804588 -58.009377 19.638592
vertex -119.998009 -58.083847 19.638592
vertex -123.998009 -58.000000 19.638592
endloop
endfacet
facet normal 0.000000 0.000000 1.000000
outer loop
vertex -123.998009 -58.000000 19.638592
vertex -119.998009 -58.083847 19.638592
vertex -119.998009 -56.000000 19.638592
endloop
endfacet
facet normal 0.000000 0.000000 1.000000
outer loop
vertex -123.998009 -58.000000 19.638592
vertex -119.998009 -56.000000 19.638592
vertex -183.998001 -56.000000 19.638592
endloop
endfacet
facet normal 0.000000 0.000000 1.000000
outer loop
vertex -123.998009 -58.000000 19.638592
vertex -183.998001 -56.000000 19.638592
vertex -179.998001 -58.000000 19.638592
endloop
endfacet
facet normal 0.000000 0.000000 1.000000
outer loop
vertex -179.998001 -58.000000 19.638592
vertex -183.998001 -56.000000 19.638592
vertex -183.998001 -58.083847 19.638592
endloop
endfacet
facet normal 0.000000 0.000000 1.000000
outer loop
vertex -179.998001 -58.000000 19.638592
vertex -183.998001 -58.083847 19.638592
vertex -180.191437 -58.009377 19.638592
endloop
endfacet
facet normal 0.000000 0.000000 1.000000
outer loop
vertex -180.191437 -58.009377 19.638592
vertex -183.998001 -58.083847 19.638592
vertex -180.383041 -58.037411 19.638592
endloop
endfacet
facet normal 0.000000 0.000000 1.000000
outer loop
vertex -180.383041 -58.037411 19.638592
vertex -183.998001 -58.083847 19.638592
vertex -180.571030 -58.083847 19.638592
endloop
endfacet
facet normal -0.098016 -0.995185 0.000000
outer loop
vertex -123.607826 -58.038429 3.638592
vertex -123.607826 -58.038429 11.638592
vertex -123.998009 -58.000000 3.638592
endloop
endfacet
facet normal -0.114219 -0.993455 0.000799
outer loop
vertex -123.998009 -58.000000 3.638592
vertex -123.607826 -58.038429 11.638592
vertex -123.804588 -58.009377 19.638592
endloop
endfacet
facet normal -0.048421 -0.998827 0.000000
outer loop
vertex -123.998009 -58.000000 3.638592
vertex -123.804588 -58.009377 19.638592
vertex -123.998009 -58.000000 19.638592
endloop
endfacet
facet normal -0.241058 -0.970511 0.000000
outer loop
vertex -123.607826 -58.038429 11.638592
vertex -123.607826 -58.038429 3.638592
vertex -123.424980 -58.083847 6.638592
endloop
endfacet
facet normal -0.290285 -0.956935 0.003208
outer loop
vertex -123.424980 -58.083847 6.638592
vertex -123.607826 -58.038429 3.638592
vertex -123.232643 -58.152241 3.638592
endloop
endfacet
facet normal -0.386893 -0.922117 -0.003782
outer loop
vertex -123.424980 -58.083847 6.638592
vertex -123.232643 -58.152241 3.638592
vertex -123.032227 -58.248638 6.638592
endloop
endfacet
facet normal -0.471401 -0.881913 0.003152
outer loop
vertex -123.032227 -58.248638 6.638592
vertex -123.232643 -58.152241 3.638592
vertex -122.886871 -58.337059 3.638592
endloop
endfacet
facet normal -0.573408 -0.819262 -0.003635
outer loop
vertex -123.032227 -58.248638 6.638592
vertex -122.886871 -58.337059 3.638592
vertex -122.683273 -58.492863 6.638592
endloop
endfacet
facet normal -0.634357 -0.773035 0.002906
outer loop
vertex -122.683273 -58.492863 6.638592
vertex -122.886871 -58.337059 3.638592
vertex -122.583794 -58.585785 3.638592
endloop
endfacet
facet normal -0.733892 -0.679258 -0.003296
outer loop
vertex -122.683273 -58.492863 6.638592
vertex -122.583794 -58.585785 3.638592
vertex -122.393944 -58.805439 6.638592
endloop
endfacet
facet normal -0.772993 -0.634410 0.002470
outer loop
vertex -122.393944 -58.805439 6.638592
vertex -122.583794 -58.585785 3.638592
vertex -122.335068 -58.888859 3.638592
endloop
endfacet
facet normal -0.861074 -0.508472 -0.002759
outer loop
vertex -122.393944 -58.805439 6.638592
vertex -122.335068 -58.888859 3.638592
vertex -122.177368 -59.172195 6.638592
endloop
endfacet
facet normal -0.881905 -0.471423 0.001837
outer loop
vertex -122.177368 -59.172195 6.638592
vertex -122.335068 -58.888859 3.638592
vertex -122.150246 -59.234634 3.638592
endloop
endfacet
facet normal -0.949224 -0.314593 -0.002034
outer loop
vertex -122.177368 -59.172195 6.638592
vertex -122.150246 -59.234634 3.638592
vertex -122.043365 -59.576492 6.638592
endloop
endfacet
facet normal -0.956940 -0.290284 0.001015
outer loop
vertex -122.043365 -59.576492 6.638592
vertex -122.150246 -59.234634 3.638592
vertex -122.036438 -59.609818 3.638592
endloop
endfacet
facet normal -0.994315 -0.106471 -0.001113
outer loop
vertex -122.043365 -59.576492 6.638592
vertex -122.036438 -59.609818 3.638592
vertex -121.998009 -60.000000 6.638592
endloop
endfacet
facet normal -0.995184 -0.098023 0.000000
outer loop
vertex -121.998009 -60.000000 6.638592
vertex -122.036438 -59.609818 3.638592
vertex -121.998009 -60.000000 3.638592
endloop
endfacet
facet normal -0.241084 -0.970504 0.000000
outer loop
vertex -123.424980 -58.083847 6.638592
vertex -123.424980 -58.083847 19.638592
vertex -123.607826 -58.038429 11.638592
endloop
endfacet
facet normal -0.239809 -0.970820 -0.000031
outer loop
vertex -123.607826 -58.038429 11.638592
vertex -123.424980 -58.083847 19.638592
vertex -123.612976 -58.037411 19.638592
endloop
endfacet
facet normal -0.144760 -0.989467 0.000033
outer loop
vertex -123.607826 -58.038429 11.638592
vertex -123.612976 -58.037411 19.638592
vertex -123.804588 -58.009377 19.638592
endloop
endfacet
facet normal 0.000000 0.000000 1.000000
outer loop
vertex -176.888184 -61.538429 3.638592
vertex -176.498001 -61.500000 3.638592
vertex -179.998001 -58.000000 3.638592
endloop
endfacet
facet normal 0.000000 0.000000 1.000000
outer loop
vertex -179.998001 -58.000000 3.638592
vertex -176.498001 -61.500000 3.638592
vertex -127.498009 -61.500000 3.638592
endloop
endfacet
facet normal 0.000000 0.000000 1.000000
outer loop
vertex -179.998001 -58.000000 3.638592
vertex -127.498009 -61.500000 3.638592
vertex -123.998009 -58.000000 3.638592
endloop
endfacet
facet normal -0.000000 0.000000 1.000000
outer loop
vertex -123.998009 -58.000000 3.638592
vertex -127.498009 -61.500000 3.638592
vertex -127.107826 -61.538429 3.638592
endloop
endfacet
facet normal 0.000000 0.000000 1.000000
outer loop
vertex -123.998009 -58.000000 3.638592
vertex -127.107826 -61.538429 3.638592
vertex -122.036438 -59.609818 3.638592
endloop
endfacet
facet normal 0.000000 0.000000 1.000000
outer loop
vertex -122.036438 -59.609818 3.638592
vertex -127.107826 -61.538429 3.638592
vertex -126.732643 -61.652241 3.638592
endloop
endfacet
facet normal 0.000000 0.000000 1.000000
outer loop
vertex -122.036438 -59.609818 3.638592
vertex -126.732643 -61.652241 3.638592
vertex -121.998009 -60.000000 3.638592
endloop
endfacet
facet normal 0.000000 0.000000 1.000000
outer loop
vertex -121.998009 -60.000000 3.638592
vertex -126.732643 -61.652241 3.638592
vertex -126.386871 -61.837059 3.638592
endloop
endfacet
facet normal -0.000000 0.000000 1.000000
outer loop
vertex -121.998009 -60.000000 3.638592
vertex -126.386871 -61.837059 3.638592
vertex -126.083794 -62.085785 3.638592
endloop
endfacet
facet normal 0.000000 0.000000 1.000000
outer loop
vertex -126.083794 -62.085785 3.638592
vertex -125.835068 -62.388859 3.638592
vertex -121.998009 -60.000000 3.638592
endloop
endfacet
facet normal -0.000000 0.000000 1.000000
outer loop
vertex -121.998009 -60.000000 3.638592
vertex -125.835068 -62.388859 3.638592
vertex -125.650246 -62.734634 3.638592
endloop
endfacet
facet normal 0.000000 0.000000 1.000000
outer loop
vertex -121.998009 -60.000000 3.638592
vertex -125.650246 -62.734634 3.638592
vertex -125.536438 -63.109818 3.638592
endloop
endfacet
facet normal 0.000000 0.000000 1.000000
outer loop
vertex -125.536438 -63.109818 3.638592
vertex -125.498009 -63.500000 3.638592
vertex -121.998009 -60.000000 3.638592
endloop
endfacet
facet normal 0.000000 0.000000 1.000000
outer loop
vertex -121.998009 -60.000000 3.638592
vertex -125.498009 -63.500000 3.638592
vertex -125.498009 -87.500000 3.638592
endloop
endfacet
facet normal 0.000000 0.000000 1.000000
outer loop
vertex -121.998009 -60.000000 3.638592
vertex -125.498009 -87.500000 3.638592
vertex -121.998009 -91.000000 3.638592
endloop
endfacet
facet normal 0.000000 0.000000 1.000000
outer loop
vertex -121.998009 -91.000000 3.638592
vertex -125.498009 -87.500000 3.638592
vertex -125.536438 -87.890182 3.638592
endloop
endfacet
facet normal 0.000000 0.000000 1.000000
outer loop
vertex -121.998009 -91.000000 3.638592
vertex -125.536438 -87.890182 3.638592
vertex -125.650246 -88.265366 3.638592
endloop
endfacet
facet normal 0.000000 0.000000 1.000000
outer loop
vertex -125.650246 -88.265366 3.638592
vertex -125.835068 -88.611137 3.638592
vertex -121.998009 -91.000000 3.638592
endloop
endfacet
facet normal -0.000001 0.000000 1.000000
outer loop
vertex -121.998009 -91.000000 3.638592
vertex -125.835068 -88.611137 3.638592
vertex -126.083794 -88.914215 3.638592
endloop
endfacet
facet normal -0.000000 0.000000 1.000000
outer loop
vertex -121.998009 -91.000000 3.638592
vertex -126.083794 -88.914215 3.638592
vertex -126.386871 -89.162941 3.638592
endloop
endfacet
facet normal 0.000000 0.000000 1.000000
outer loop
vertex -126.386871 -89.162941 3.638592
vertex -126.732643 -89.347755 3.638592
vertex -121.998009 -91.000000 3.638592
endloop
endfacet
facet normal 0.000000 0.000000 1.000000
outer loop
vertex -121.998009 -91.000000 3.638592
vertex -126.732643 -89.347755 3.638592
vertex -122.036438 -91.390182 3.638592
endloop
endfacet
facet normal 0.000000 0.000000 1.000000
outer loop
vertex -122.036438 -91.390182 3.638592
vertex -126.732643 -89.347755 3.638592
vertex -127.107826 -89.461571 3.638592
endloop
endfacet
facet normal 0.000000 0.000000 1.000000
outer loop
vertex -122.036438 -91.390182 3.638592
vertex -127.107826 -89.461571 3.638592
vertex -123.998009 -93.000000 3.638592
endloop
endfacet
facet normal -0.000000 0.000000 1.000000
outer loop
vertex -123.998009 -93.000000 3.638592
vertex -127.107826 -89.461571 3.638592
vertex -127.498009 -89.500000 3.638592
endloop
endfacet
facet normal 0.000000 0.000000 1.000000
outer loop
vertex -123.998009 -93.000000 3.638592
vertex -127.498009 -89.500000 3.638592
vertex -179.998001 -93.000000 3.638592
endloop
endfacet
facet normal 0.000000 0.000000 1.000000
outer loop
vertex -179.998001 -93.000000 3.638592
vertex -127.498009 -89.500000 3.638592
vertex -176.498001 -89.500000 3.638592
endloop
endfacet
facet normal 0.000000 0.000000 1.000000
outer loop
vertex -179.998001 -93.000000 3.638592
vertex -176.498001 -89.500000 3.638592
vertex -176.888184 -89.461571 3.638592
endloop
endfacet
facet normal -0.000000 0.000000 1.000000
outer loop
vertex -179.998001 -93.000000 3.638592
vertex -176.888184 -89.461571 3.638592
vertex -181.959579 -91.390182 3.638592
endloop
endfacet
facet normal -0.000000 0.000000 1.000000
outer loop
vertex -181.959579 -91.390182 3.638592
vertex -176.888184 -89.461571 3.638592
vertex -177.263382 -89.347755 3.638592
endloop
endfacet
facet normal 0.000000 0.000000 1.000000
outer loop
vertex -181.959579 -91.390182 3.638592
vertex -177.263382 -89.347755 3.638592
vertex -181.998001 -91.000000 3.638592
endloop
endfacet
facet normal 0.000000 0.000000 1.000000
outer loop
vertex -181.998001 -91.000000 3.638592
vertex -177.263382 -89.347755 3.638592
vertex -177.609146 -89.162941 3.638592
endloop
endfacet
facet normal 0.000000 0.000000 1.000000
outer loop
vertex -181.998001 -91.000000 3.638592
vertex -177.609146 -89.162941 3.638592
vertex -177.912216 -88.914215 3.638592
endloop
endfacet
facet normal 0.000000 0.000000 1.000000
outer loop
vertex -177.912216 -88.914215 3.638592
vertex -178.160950 -88.611137 3.638592
vertex -181.998001 -91.000000 3.638592
endloop
endfacet
facet normal 0.000000 0.000000 1.000000
outer loop
vertex -181.998001 -91.000000 3.638592
vertex -178.160950 -88.611137 3.638592
vertex -178.345764 -88.265366 3.638592
endloop
endfacet
facet normal -0.000000 0.000000 1.000000
outer loop
vertex -181.998001 -91.000000 3.638592
vertex -178.345764 -88.265366 3.638592
vertex -178.459579 -87.890182 3.638592
endloop
endfacet
facet normal 0.000000 0.000000 1.000000
outer loop
vertex -178.459579 -87.890182 3.638592
vertex -178.498001 -87.500000 3.638592
vertex -181.998001 -91.000000 3.638592
endloop
endfacet
facet normal 0.000000 0.000000 1.000000
outer loop
vertex -181.998001 -91.000000 3.638592
vertex -178.498001 -87.500000 3.638592
vertex -178.498001 -63.500000 3.638592
endloop
endfacet
facet normal -0.000000 0.000000 1.000000
outer loop
vertex -181.998001 -91.000000 3.638592
vertex -178.498001 -63.500000 3.638592
vertex -181.998001 -60.000000 3.638592
endloop
endfacet
facet normal 0.000000 0.000000 1.000000
outer loop
vertex -181.998001 -60.000000 3.638592
vertex -178.498001 -63.500000 3.638592
vertex -178.459579 -63.109818 3.638592
endloop
endfacet
facet normal -0.000000 0.000000 1.000000
outer loop
vertex -181.998001 -60.000000 3.638592
vertex -178.459579 -63.109818 3.638592
vertex -178.345764 -62.734634 3.638592
endloop
endfacet
facet normal 0.000000 0.000000 1.000000
outer loop
vertex -178.345764 -62.734634 3.638592
vertex -178.160950 -62.388859 3.638592
vertex -181.998001 -60.000000 3.638592
endloop
endfacet
facet normal 0.000000 0.000000 1.000000
outer loop
vertex -181.998001 -60.000000 3.638592
vertex -178.160950 -62.388859 3.638592
vertex -177.912216 -62.085785 3.638592
endloop
endfacet
facet normal 0.000000 0.000000 1.000000
outer loop
vertex -181.998001 -60.000000 3.638592
vertex -177.912216 -62.085785 3.638592
vertex -177.609146 -61.837059 3.638592
endloop
endfacet
facet normal 0.000000 0.000000 1.000000
outer loop
vertex -177.609146 -61.837059 3.638592
vertex -177.263382 -61.652241 3.638592
vertex -181.998001 -60.000000 3.638592
endloop
endfacet
facet normal 0.000000 0.000000 1.000000
outer loop
vertex -181.998001 -60.000000 3.638592
vertex -177.263382 -61.652241 3.638592
vertex -181.959579 -59.609818 3.638592
endloop
endfacet
facet normal -0.000000 0.000000 1.000000
outer loop
vertex -181.959579 -59.609818 3.638592
vertex -177.263382 -61.652241 3.638592
vertex -176.888184 -61.538429 3.638592
endloop
endfacet
facet normal 0.000000 0.000000 1.000000
outer loop
vertex -181.959579 -59.609818 3.638592
vertex -176.888184 -61.538429 3.638592
vertex -179.998001 -58.000000 3.638592
endloop
endfacet
facet normal -0.000002 0.000000 1.000000
outer loop
vertex -122.036438 -59.609818 3.638592
vertex -122.150246 -59.234634 3.638592
vertex -123.998009 -58.000000 3.638592
endloop
endfacet
facet normal 0.000001 0.000000 1.000000
outer loop
vertex -123.998009 -58.000000 3.638592
vertex -122.150246 -59.234634 3.638592
vertex -122.335068 -58.888859 3.638592
endloop
endfacet
facet normal 0.000000 0.000000 1.000000
outer loop
vertex -123.998009 -58.000000 3.638592
vertex -122.335068 -58.888859 3.638592
vertex -122.583794 -58.585785 3.638592
endloop
endfacet
facet normal 0.000000 0.000000 1.000000
outer loop
vertex -122.583794 -58.585785 3.638592
vertex -122.886871 -58.337059 3.638592
vertex -123.998009 -58.000000 3.638592
endloop
endfacet
facet normal 0.000001 0.000000 1.000000
outer loop
vertex -123.998009 -58.000000 3.638592
vertex -122.886871 -58.337059 3.638592
vertex -123.232643 -58.152241 3.638592
endloop
endfacet
facet normal 0.000000 0.000000 1.000000
outer loop
vertex -123.998009 -58.000000 3.638592
vertex -123.232643 -58.152241 3.638592
vertex -123.607826 -58.038429 3.638592
endloop
endfacet
facet normal 0.000000 0.000000 1.000000
outer loop
vertex -180.388184 -58.038429 3.638592
vertex -180.763382 -58.152241 3.638592
vertex -179.998001 -58.000000 3.638592
endloop
endfacet
facet normal -0.000001 0.000000 1.000000
outer loop
vertex -179.998001 -58.000000 3.638592
vertex -180.763382 -58.152241 3.638592
vertex -181.109146 -58.337059 3.638592
endloop
endfacet
facet normal 0.000000 0.000000 1.000000
outer loop
vertex -179.998001 -58.000000 3.638592
vertex -181.109146 -58.337059 3.638592
vertex -181.412216 -58.585785 3.638592
endloop
endfacet
facet normal 0.000000 0.000000 1.000000
outer loop
vertex -181.412216 -58.585785 3.638592
vertex -181.660950 -58.888859 3.638592
vertex -179.998001 -58.000000 3.638592
endloop
endfacet
facet normal -0.000001 0.000000 1.000000
outer loop
vertex -179.998001 -58.000000 3.638592
vertex -181.660950 -58.888859 3.638592
vertex -181.845764 -59.234634 3.638592
endloop
endfacet
facet normal 0.000001 0.000000 1.000000
outer loop
vertex -179.998001 -58.000000 3.638592
vertex -181.845764 -59.234634 3.638592
vertex -181.959579 -59.609818 3.638592
endloop
endfacet
facet normal 0.000002 0.000000 1.000000
outer loop
vertex -181.959579 -91.390182 3.638592
vertex -181.845764 -91.765366 3.638592
vertex -179.998001 -93.000000 3.638592
endloop
endfacet
facet normal -0.000001 0.000000 1.000000
outer loop
vertex -179.998001 -93.000000 3.638592
vertex -181.845764 -91.765366 3.638592
vertex -181.660950 -92.111137 3.638592
endloop
endfacet
facet normal 0.000000 0.000000 1.000000
outer loop
vertex -179.998001 -93.000000 3.638592
vertex -181.660950 -92.111137 3.638592
vertex -181.412216 -92.414215 3.638592
endloop
endfacet
facet normal 0.000000 0.000000 1.000000
outer loop
vertex -181.412216 -92.414215 3.638592
vertex -181.109146 -92.662941 3.638592
vertex -179.998001 -93.000000 3.638592
endloop
endfacet
facet normal -0.000001 0.000000 1.000000
outer loop
vertex -179.998001 -93.000000 3.638592
vertex -181.109146 -92.662941 3.638592
vertex -180.763382 -92.847755 3.638592
endloop
endfacet
facet normal 0.000000 0.000000 1.000000
outer loop
vertex -179.998001 -93.000000 3.638592
vertex -180.763382 -92.847755 3.638592
vertex -180.388184 -92.961571 3.638592
endloop
endfacet
facet normal 0.000000 0.000000 1.000000
outer loop
vertex -123.607826 -92.961571 3.638592
vertex -123.232643 -92.847755 3.638592
vertex -123.998009 -93.000000 3.638592
endloop
endfacet
facet normal 0.000001 0.000000 1.000000
outer loop
vertex -123.998009 -93.000000 3.638592
vertex -123.232643 -92.847755 3.638592
vertex -122.886871 -92.662941 3.638592
endloop
endfacet
facet normal 0.000000 0.000000 1.000000
outer loop
vertex -123.998009 -93.000000 3.638592
vertex -122.886871 -92.662941 3.638592
vertex -122.583794 -92.414215 3.638592
endloop
endfacet
facet normal 0.000000 0.000000 1.000000
outer loop
vertex -122.583794 -92.414215 3.638592
vertex -122.335068 -92.111137 3.638592
vertex -123.998009 -93.000000 3.638592
endloop
endfacet
facet normal 0.000001 0.000000 1.000000
outer loop
vertex -123.998009 -93.000000 3.638592
vertex -122.335068 -92.111137 3.638592
vertex -122.150246 -91.765366 3.638592
endloop
endfacet
facet normal -0.000001 0.000000 1.000000
outer loop
vertex -123.998009 -93.000000 3.638592
vertex -122.150246 -91.765366 3.638592
vertex -122.036438 -91.390182 3.638592
endloop
endfacet
facet normal 0.000000 -1.000000 0.000000
outer loop
vertex -123.998009 -58.000000 19.638592
vertex -179.998001 -58.000000 19.638592
vertex -123.998009 -58.000000 3.638592
endloop
endfacet
facet normal 0.000000 -1.000000 0.000000
outer loop
vertex -123.998009 -58.000000 3.638592
vertex -179.998001 -58.000000 19.638592
vertex -179.998001 -58.000000 3.638592
endloop
endfacet
facet normal -0.995184 0.098023 0.000000
outer loop
vertex -121.998009 -91.000000 6.638592
vertex -121.998009 -91.000000 3.638592
vertex -122.036438 -91.390182 6.638592
endloop
endfacet
facet normal -0.995184 0.098023 0.000000
outer loop
vertex -122.036438 -91.390182 6.638592
vertex -121.998009 -91.000000 3.638592
vertex -122.036438 -91.390182 3.638592
endloop
endfacet
facet normal -0.956955 0.290236 0.000000
outer loop
vertex -122.036438 -91.390182 6.638592
vertex -122.036438 -91.390182 3.638592
vertex -122.150246 -91.765366 6.638592
endloop
endfacet
facet normal -0.956926 0.290331 0.000000
outer loop
vertex -122.150246 -91.765366 6.638592
vertex -122.036438 -91.390182 3.638592
vertex -122.150246 -91.765366 3.638592
endloop
endfacet
facet normal -0.881926 0.471388 0.000000
outer loop
vertex -122.150246 -91.765366 6.638592
vertex -122.150246 -91.765366 3.638592
vertex -122.335068 -92.111137 6.638592
endloop
endfacet
facet normal -0.881926 0.471388 0.000000
outer loop
vertex -122.335068 -92.111137 6.638592
vertex -122.150246 -91.765366 3.638592
vertex -122.335068 -92.111137 3.638592
endloop
endfacet
facet normal -0.773024 0.634376 0.000000
outer loop
vertex -122.335068 -92.111137 6.638592
vertex -122.335068 -92.111137 3.638592
vertex -122.583794 -92.414215 6.638592
endloop
endfacet
facet normal -0.772999 0.634407 0.000000
outer loop
vertex -122.583794 -92.414215 6.638592
vertex -122.335068 -92.111137 3.638592
vertex -122.583794 -92.414215 3.638592
endloop
endfacet
facet normal -0.634385 0.773017 0.000000
outer loop
vertex -122.583794 -92.414215 6.638592
vertex -122.583794 -92.414215 3.638592
vertex -122.886871 -92.662941 6.638592
endloop
endfacet
facet normal -0.634385 0.773017 0.000000
outer loop
vertex -122.886871 -92.662941 6.638592
vertex -122.583794 -92.414215 3.638592
vertex -122.886871 -92.662941 3.638592
endloop
endfacet
facet normal -0.471396 0.881922 0.000000
outer loop
vertex -122.886871 -92.662941 6.638592
vertex -122.886871 -92.662941 3.638592
vertex -123.232643 -92.847755 6.638592
endloop
endfacet
facet normal -0.471375 0.881933 0.000000
outer loop
vertex -123.232643 -92.847755 6.638592
vertex -122.886871 -92.662941 3.638592
vertex -123.232643 -92.847755 3.638592
endloop
endfacet
facet normal -0.290296 0.956937 0.000000
outer loop
vertex -123.232643 -92.847755 6.638592
vertex -123.232643 -92.847755 3.638592
vertex -123.607826 -92.961571 6.638592
endloop
endfacet
facet normal -0.290296 0.956937 0.000000
outer loop
vertex -123.607826 -92.961571 6.638592
vertex -123.232643 -92.847755 3.638592
vertex -123.607826 -92.961571 3.638592
endloop
endfacet
facet normal -0.098017 0.995185 0.000000
outer loop
vertex -123.607826 -92.961571 6.638592
vertex -123.607826 -92.961571 3.638592
vertex -123.998009 -93.000000 6.638592
endloop
endfacet
facet normal -0.098018 0.995185 0.000000
outer loop
vertex -123.998009 -93.000000 6.638592
vertex -123.607826 -92.961571 3.638592
vertex -123.998009 -93.000000 3.638592
endloop
endfacet
facet normal 0.000000 1.000000 0.000000
outer loop
vertex -123.998009 -93.000000 3.638592
vertex -179.998001 -93.000000 3.638592
vertex -123.998009 -93.000000 6.638592
endloop
endfacet
facet normal 0.000000 1.000000 0.000000
outer loop
vertex -123.998009 -93.000000 6.638592
vertex -179.998001 -93.000000 3.638592
vertex -179.998001 -93.000000 6.638592
endloop
endfacet
facet normal 0.098017 0.995185 0.000000
outer loop
vertex -179.998001 -93.000000 6.638592
vertex -179.998001 -93.000000 3.638592
vertex -180.388184 -92.961571 6.638592
endloop
endfacet
facet normal 0.098007 0.995186 0.000000
outer loop
vertex -180.388184 -92.961571 6.638592
vertex -179.998001 -93.000000 3.638592
vertex -180.388184 -92.961571 3.638592
endloop
endfacet
facet normal 0.290310 0.956933 0.000000
outer loop
vertex -180.388184 -92.961571 6.638592
vertex -180.388184 -92.961571 3.638592
vertex -180.763382 -92.847755 6.638592
endloop
endfacet
facet normal 0.290281 0.956941 0.000000
outer loop
vertex -180.763382 -92.847755 6.638592
vertex -180.388184 -92.961571 3.638592
vertex -180.763382 -92.847755 3.638592
endloop
endfacet
facet normal 0.471375 0.881933 0.000000
outer loop
vertex -180.763382 -92.847755 6.638592
vertex -180.763382 -92.847755 3.638592
vertex -181.109146 -92.662941 6.638592
endloop
endfacet
facet normal 0.471418 0.881910 0.000000
outer loop
vertex -181.109146 -92.662941 6.638592
vertex -180.763382 -92.847755 3.638592
vertex -181.109146 -92.662941 3.638592
endloop
endfacet
facet normal 0.634359 0.773038 0.000000
outer loop
vertex -181.109146 -92.662941 6.638592
vertex -181.109146 -92.662941 3.638592
vertex -181.412216 -92.414215 6.638592
endloop
endfacet
facet normal 0.634410 0.772996 0.000000
outer loop
vertex -181.412216 -92.414215 6.638592
vertex -181.109146 -92.662941 3.638592
vertex -181.412216 -92.414215 3.638592
endloop
endfacet
facet normal 0.772999 0.634407 0.000000
outer loop
vertex -181.412216 -92.414215 6.638592
vertex -181.412216 -92.414215 3.638592
vertex -181.660950 -92.111137 6.638592
endloop
endfacet
facet normal 0.772999 0.634407 0.000000
outer loop
vertex -181.660950 -92.111137 6.638592
vertex -181.412216 -92.414215 3.638592
vertex -181.660950 -92.111137 3.638592
endloop
endfacet
facet normal 0.881926 0.471388 0.000000
outer loop
vertex -181.660950 -92.111137 6.638592
vertex -181.660950 -92.111137 3.638592
vertex -181.845764 -91.765366 6.638592
endloop
endfacet
facet normal 0.881926 0.471388 0.000000
outer loop
vertex -181.845764 -91.765366 6.638592
vertex -181.660950 -92.111137 3.638592
vertex -181.845764 -91.765366 3.638592
endloop
endfacet
facet normal 0.956941 0.290284 0.000000
outer loop
vertex -181.845764 -91.765366 6.638592
vertex -181.845764 -91.765366 3.638592
vertex -181.959579 -91.390182 6.638592
endloop
endfacet
facet normal 0.956941 0.290284 0.000000
outer loop
vertex -181.959579 -91.390182 6.638592
vertex -181.845764 -91.765366 3.638592
vertex -181.959579 -91.390182 3.638592
endloop
endfacet
facet normal 0.995189 0.097971 0.000000
outer loop
vertex -181.959579 -91.390182 6.638592
vertex -181.959579 -91.390182 3.638592
vertex -181.998001 -91.000000 6.638592
endloop
endfacet
facet normal 0.995189 0.097971 0.000000
outer loop
vertex -181.998001 -91.000000 6.638592
vertex -181.959579 -91.390182 3.638592
vertex -181.998001 -91.000000 3.638592
endloop
endfacet
facet normal 1.000000 0.000000 0.000000
outer loop
vertex -181.998001 -91.000000 3.638592
vertex -181.998001 -60.000000 3.638592
vertex -181.998001 -91.000000 6.638592
endloop
endfacet
facet normal 1.000000 0.000000 0.000000
outer loop
vertex -181.998001 -91.000000 6.638592
vertex -181.998001 -60.000000 3.638592
vertex -181.998001 -60.000000 6.638592
endloop
endfacet
facet normal 0.995189 -0.097971 0.000000
outer loop
vertex -181.998001 -60.000000 3.638592
vertex -181.959579 -59.609818 3.638592
vertex -181.998001 -60.000000 6.638592
endloop
endfacet
facet normal 0.994320 -0.106424 -0.001113
outer loop
vertex -181.998001 -60.000000 6.638592
vertex -181.959579 -59.609818 3.638592
vertex -181.952652 -59.576492 6.638592
endloop
endfacet
facet normal 0.956911 -0.290379 0.001015
outer loop
vertex -181.952652 -59.576492 6.638592
vertex -181.959579 -59.609818 3.638592
vertex -181.845764 -59.234634 3.638592
endloop
endfacet
facet normal 0.949253 -0.314507 -0.002032
outer loop
vertex -181.952652 -59.576492 6.638592
vertex -181.845764 -59.234634 3.638592
vertex -181.818649 -59.172195 6.638592
endloop
endfacet
facet normal 0.881927 -0.471383 0.001839
outer loop
vertex -181.818649 -59.172195 6.638592
vertex -181.845764 -59.234634 3.638592
vertex -181.660950 -58.888859 3.638592
endloop
endfacet
facet normal 0.861053 -0.508508 -0.002757
outer loop
vertex -181.818649 -59.172195 6.638592
vertex -181.660950 -58.888859 3.638592
vertex -181.602081 -58.805439 6.638592
endloop
endfacet
facet normal 0.772993 -0.634410 0.002471
outer loop
vertex -181.602081 -58.805439 6.638592
vertex -181.660950 -58.888859 3.638592
vertex -181.412216 -58.585785 3.638592
endloop
endfacet
facet normal 0.733892 -0.679258 -0.003294
outer loop
vertex -181.602081 -58.805439 6.638592
vertex -181.412216 -58.585785 3.638592
vertex -181.312744 -58.492863 6.638592
endloop
endfacet
facet normal 0.634357 -0.773035 0.002906
outer loop
vertex -181.312744 -58.492863 6.638592
vertex -181.412216 -58.585785 3.638592
vertex -181.109146 -58.337059 3.638592
endloop
endfacet
facet normal 0.573386 -0.819278 -0.003635
outer loop
vertex -181.312744 -58.492863 6.638592
vertex -181.109146 -58.337059 3.638592
vertex -180.963791 -58.248638 6.638592
endloop
endfacet
facet normal 0.471423 -0.881902 0.003153
outer loop
vertex -180.963791 -58.248638 6.638592
vertex -181.109146 -58.337059 3.638592
vertex -180.763382 -58.152241 3.638592
endloop
endfacet
facet normal 0.386876 -0.922124 -0.003785
outer loop
vertex -180.963791 -58.248638 6.638592
vertex -180.763382 -58.152241 3.638592
vertex -180.571030 -58.083847 6.638592
endloop
endfacet
facet normal 0.290300 -0.956930 0.003204
outer loop
vertex -180.571030 -58.083847 6.638592
vertex -180.763382 -58.152241 3.638592
vertex -180.388184 -58.038429 3.638592
endloop
endfacet
facet normal 0.241049 -0.970513 0.000000
outer loop
vertex -180.571030 -58.083847 6.638592
vertex -180.388184 -58.038429 3.638592
vertex -180.388184 -58.038429 11.638592
endloop
endfacet
facet normal 0.146104 -0.989269 0.000000
outer loop
vertex -180.388184 -58.038429 11.638592
vertex -180.388184 -58.038429 3.638592
vertex -180.191437 -58.009377 19.638592
endloop
endfacet
facet normal 0.144760 -0.989467 0.000033
outer loop
vertex -180.388184 -58.038429 11.638592
vertex -180.191437 -58.009377 19.638592
vertex -180.383041 -58.037411 19.638592
endloop
endfacet
facet normal 0.098020 -0.995184 0.000602
outer loop
vertex -180.388184 -58.038429 3.638592
vertex -179.998001 -58.000000 3.638592
vertex -180.191437 -58.009377 19.638592
endloop
endfacet
facet normal 0.048413 -0.998827 0.000000
outer loop
vertex -180.191437 -58.009377 19.638592
vertex -179.998001 -58.000000 3.638592
vertex -179.998001 -58.000000 19.638592
endloop
endfacet
facet normal 0.239809 -0.970820 -0.000032
outer loop
vertex -180.383041 -58.037411 19.638592
vertex -180.571030 -58.083847 19.638592
vertex -180.388184 -58.038429 11.638592
endloop
endfacet
facet normal 0.241072 -0.970507 0.000000
outer loop
vertex -180.388184 -58.038429 11.638592
vertex -180.571030 -58.083847 19.638592
vertex -180.571030 -58.083847 6.638592
endloop
endfacet
facet normal -0.995187 0.097997 0.000000
outer loop
vertex -178.498001 -63.500000 3.638592
vertex -178.498001 -63.500000 11.638592
vertex -178.459579 -63.109818 3.638592
endloop
endfacet
facet normal -0.995187 0.097997 0.000000
outer loop
vertex -178.459579 -63.109818 3.638592
vertex -178.498001 -63.500000 11.638592
vertex -178.459579 -63.109818 11.638592
endloop
endfacet
facet normal -0.956948 0.290260 0.000000
outer loop
vertex -178.459579 -63.109818 3.638592
vertex -178.459579 -63.109818 11.638592
vertex -178.345764 -62.734634 3.638592
endloop
endfacet
facet normal -0.956926 0.290331 0.000000
outer loop
vertex -178.345764 -62.734634 3.638592
vertex -178.459579 -63.109818 11.638592
vertex -178.345764 -62.734634 11.638592
endloop
endfacet
facet normal -0.881928 0.471384 0.000000
outer loop
vertex -178.345764 -62.734634 3.638592
vertex -178.345764 -62.734634 11.638592
vertex -178.160950 -62.388859 3.638592
endloop
endfacet
facet normal -0.881928 0.471384 0.000000
outer loop
vertex -178.160950 -62.388859 3.638592
vertex -178.345764 -62.734634 11.638592
vertex -178.160950 -62.388859 11.638592
endloop
endfacet
facet normal -0.773021 0.634381 0.000000
outer loop
vertex -178.160950 -62.388859 3.638592
vertex -178.160950 -62.388859 11.638592
vertex -177.912216 -62.085785 3.638592
endloop
endfacet
facet normal -0.772982 0.634427 0.000000
outer loop
vertex -177.912216 -62.085785 3.638592
vertex -178.160950 -62.388859 11.638592
vertex -177.912216 -62.085785 11.638592
endloop
endfacet
facet normal -0.634397 0.773007 0.000000
outer loop
vertex -177.912216 -62.085785 3.638592
vertex -177.912216 -62.085785 11.638592
vertex -177.609146 -61.837059 3.638592
endloop
endfacet
facet normal -0.634397 0.773007 0.000000
outer loop
vertex -177.609146 -61.837059 3.638592
vertex -177.912216 -62.085785 11.638592
vertex -177.609146 -61.837059 11.638592
endloop
endfacet
facet normal -0.471404 0.881918 0.000000
outer loop
vertex -177.609146 -61.837059 3.638592
vertex -177.609146 -61.837059 11.638592
vertex -177.263382 -61.652241 3.638592
endloop
endfacet
facet normal -0.471404 0.881918 0.000000
outer loop
vertex -177.263382 -61.652241 3.638592
vertex -177.609146 -61.837059 11.638592
vertex -177.263382 -61.652241 11.638592
endloop
endfacet
facet normal -0.290265 0.956946 0.000000
outer loop
vertex -177.263382 -61.652241 3.638592
vertex -177.263382 -61.652241 11.638592
vertex -176.888184 -61.538429 3.638592
endloop
endfacet
facet normal -0.290287 0.956940 0.000000
outer loop
vertex -176.888184 -61.538429 3.638592
vertex -177.263382 -61.652241 11.638592
vertex -176.888184 -61.538429 11.638592
endloop
endfacet
facet normal -0.098012 0.995185 0.000000
outer loop
vertex -176.888184 -61.538429 3.638592
vertex -176.888184 -61.538429 11.638592
vertex -176.498001 -61.500000 3.638592
endloop
endfacet
facet normal -0.098020 0.995184 0.000000
outer loop
vertex -176.498001 -61.500000 3.638592
vertex -176.888184 -61.538429 11.638592
vertex -176.498001 -61.500000 11.638592
endloop
endfacet
facet normal 0.000000 0.000000 1.000000
outer loop
vertex -127.498009 -63.500000 11.638592
vertex -127.498009 -61.500000 11.638592
vertex -176.498001 -63.500000 11.638592
endloop
endfacet
facet normal 0.000000 0.000000 1.000000
outer loop
vertex -176.498001 -63.500000 11.638592
vertex -127.498009 -61.500000 11.638592
vertex -176.498001 -61.500000 11.638592
endloop
endfacet
facet normal 0.000001 0.000000 1.000000
outer loop
vertex -176.498001 -63.500000 11.638592
vertex -176.498001 -61.500000 11.638592
vertex -177.609146 -61.837059 11.638592
endloop
endfacet
facet normal 0.000000 0.000000 1.000000
outer loop
vertex -177.609146 -61.837059 11.638592
vertex -176.498001 -61.500000 11.638592
vertex -177.263382 -61.652241 11.638592
endloop
endfacet
facet normal -0.000004 0.000000 1.000000
outer loop
vertex -177.263382 -61.652241 11.638592
vertex -176.498001 -61.500000 11.638592
vertex -176.888184 -61.538429 11.638592
endloop
endfacet
facet normal 0.000000 0.000000 1.000000
outer loop
vertex -127.498009 -87.500000 11.638592
vertex -125.498009 -63.500000 11.638592
vertex -127.498009 -63.500000 11.638592
endloop
endfacet
facet normal 0.000000 0.000000 1.000000
outer loop
vertex -127.498009 -63.500000 11.638592
vertex -125.498009 -63.500000 11.638592
vertex -125.536438 -63.109818 11.638592
endloop
endfacet
facet normal 0.000000 0.000000 1.000000
outer loop
vertex -127.498009 -63.500000 11.638592
vertex -125.536438 -63.109818 11.638592
vertex -125.650246 -62.734634 11.638592
endloop
endfacet
facet normal 0.000000 0.000000 1.000000
outer loop
vertex -176.498001 -87.500000 11.638592
vertex -176.498001 -89.500000 11.638592
vertex -127.498009 -87.500000 11.638592
endloop
endfacet
facet normal 0.000000 0.000000 1.000000
outer loop
vertex -127.498009 -87.500000 11.638592
vertex -176.498001 -89.500000 11.638592
vertex -127.498009 -89.500000 11.638592
endloop
endfacet
facet normal -0.000001 0.000000 1.000000
outer loop
vertex -127.498009 -87.500000 11.638592
vertex -127.498009 -89.500000 11.638592
vertex -126.386871 -89.162941 11.638592
endloop
endfacet
facet normal 0.000000 0.000000 1.000000
outer loop
vertex -126.386871 -89.162941 11.638592
vertex -127.498009 -89.500000 11.638592
vertex -126.732643 -89.347755 11.638592
endloop
endfacet
facet normal -0.000004 0.000000 1.000000
outer loop
vertex -126.732643 -89.347755 11.638592
vertex -127.498009 -89.500000 11.638592
vertex -127.107826 -89.461571 11.638592
endloop
endfacet
facet normal 0.000000 0.000000 1.000000
outer loop
vertex -176.498001 -63.500000 11.638592
vertex -178.498001 -87.500000 11.638592
vertex -176.498001 -87.500000 11.638592
endloop
endfacet
facet normal 0.000000 0.000000 1.000000
outer loop
vertex -176.498001 -87.500000 11.638592
vertex -178.498001 -87.500000 11.638592
vertex -178.459579 -87.890182 11.638592
endloop
endfacet
facet normal 0.000000 0.000000 1.000000
outer loop
vertex -176.498001 -87.500000 11.638592
vertex -178.459579 -87.890182 11.638592
vertex -178.345764 -88.265366 11.638592
endloop
endfacet
facet normal 0.000000 0.000000 1.000000
outer loop
vertex -177.609146 -61.837059 11.638592
vertex -177.912216 -62.085785 11.638592
vertex -176.498001 -63.500000 11.638592
endloop
endfacet
facet normal -0.000002 0.000000 1.000000
outer loop
vertex -176.498001 -63.500000 11.638592
vertex -177.912216 -62.085785 11.638592
vertex -178.160950 -62.388859 11.638592
endloop
endfacet
facet normal 0.000001 0.000000 1.000000
outer loop
vertex -176.498001 -63.500000 11.638592
vertex -178.160950 -62.388859 11.638592
vertex -178.345764 -62.734634 11.638592
endloop
endfacet
facet normal 0.000000 0.000000 1.000000
outer loop
vertex -178.345764 -62.734634 11.638592
vertex -178.459579 -63.109818 11.638592
vertex -176.498001 -63.500000 11.638592
endloop
endfacet
facet normal 0.000000 0.000000 1.000000
outer loop
vertex -176.498001 -63.500000 11.638592
vertex -178.459579 -63.109818 11.638592
vertex -178.498001 -63.500000 11.638592
endloop
endfacet
facet normal 0.000000 0.000000 1.000000
outer loop
vertex -176.498001 -63.500000 11.638592
vertex -178.498001 -63.500000 11.638592
vertex -178.498001 -87.500000 11.638592
endloop
endfacet
facet normal 0.000000 0.000000 1.000000
outer loop
vertex -178.345764 -88.265366 11.638592
vertex -178.160950 -88.611137 11.638592
vertex -176.498001 -87.500000 11.638592
endloop
endfacet
facet normal -0.000001 0.000000 1.000000
outer loop
vertex -176.498001 -87.500000 11.638592
vertex -178.160950 -88.611137 11.638592
vertex -177.912216 -88.914215 11.638592
endloop
endfacet
facet normal -0.000001 0.000000 1.000000
outer loop
vertex -176.498001 -87.500000 11.638592
vertex -177.912216 -88.914215 11.638592
vertex -177.609146 -89.162941 11.638592
endloop
endfacet
facet normal 0.000001 0.000000 1.000000
outer loop
vertex -176.498001 -87.500000 11.638592
vertex -177.609146 -89.162941 11.638592
vertex -176.498001 -89.500000 11.638592
endloop
endfacet
facet normal 0.000000 0.000000 1.000000
outer loop
vertex -176.498001 -89.500000 11.638592
vertex -177.609146 -89.162941 11.638592
vertex -177.263382 -89.347755 11.638592
endloop
endfacet
facet normal 0.000008 0.000000 1.000000
outer loop
vertex -176.498001 -89.500000 11.638592
vertex -177.263382 -89.347755 11.638592
vertex -176.888184 -89.461571 11.638592
endloop
endfacet
facet normal 0.000000 0.000000 1.000000
outer loop
vertex -126.386871 -89.162941 11.638592
vertex -126.083794 -88.914215 11.638592
vertex -127.498009 -87.500000 11.638592
endloop
endfacet
facet normal 0.000001 0.000000 1.000000
outer loop
vertex -127.498009 -87.500000 11.638592
vertex -126.083794 -88.914215 11.638592
vertex -125.835068 -88.611137 11.638592
endloop
endfacet
facet normal 0.000000 0.000000 1.000000
outer loop
vertex -127.498009 -87.500000 11.638592
vertex -125.835068 -88.611137 11.638592
vertex -125.650246 -88.265366 11.638592
endloop
endfacet
facet normal 0.000000 0.000000 1.000000
outer loop
vertex -125.650246 -88.265366 11.638592
vertex -125.536438 -87.890182 11.638592
vertex -127.498009 -87.500000 11.638592
endloop
endfacet
facet normal 0.000000 0.000000 1.000000
outer loop
vertex -127.498009 -87.500000 11.638592
vertex -125.536438 -87.890182 11.638592
vertex -125.498009 -87.500000 11.638592
endloop
endfacet
facet normal 0.000000 0.000000 1.000000
outer loop
vertex -127.498009 -87.500000 11.638592
vertex -125.498009 -87.500000 11.638592
vertex -125.498009 -63.500000 11.638592
endloop
endfacet
facet normal -0.000002 0.000000 1.000000
outer loop
vertex -125.650246 -62.734634 11.638592
vertex -125.835068 -62.388859 11.638592
vertex -127.498009 -63.500000 11.638592
endloop
endfacet
facet normal 0.000002 0.000000 1.000000
outer loop
vertex -127.498009 -63.500000 11.638592
vertex -125.835068 -62.388859 11.638592
vertex -126.083794 -62.085785 11.638592
endloop
endfacet
facet normal 0.000001 0.000000 1.000000
outer loop
vertex -127.498009 -63.500000 11.638592
vertex -126.083794 -62.085785 11.638592
vertex -126.386871 -61.837059 11.638592
endloop
endfacet
facet normal -0.000001 0.000000 1.000000
outer loop
vertex -127.498009 -63.500000 11.638592
vertex -126.386871 -61.837059 11.638592
vertex -127.498009 -61.500000 11.638592
endloop
endfacet
facet normal 0.000000 0.000000 1.000000
outer loop
vertex -127.498009 -61.500000 11.638592
vertex -126.386871 -61.837059 11.638592
vertex -126.732643 -61.652241 11.638592
endloop
endfacet
facet normal 0.000000 0.000000 1.000000
outer loop
vertex -127.498009 -61.500000 11.638592
vertex -126.732643 -61.652241 11.638592
vertex -127.107826 -61.538429 11.638592
endloop
endfacet
facet normal -1.000000 0.000000 0.000000
outer loop
vertex -178.498001 -63.500000 3.638592
vertex -178.498001 -87.500000 3.638592
vertex -178.498001 -63.500000 11.638592
endloop
endfacet
facet normal -1.000000 0.000000 0.000000
outer loop
vertex -178.498001 -63.500000 11.638592
vertex -178.498001 -87.500000 3.638592
vertex -178.498001 -87.500000 11.638592
endloop
endfacet
facet normal -0.098020 -0.995184 0.000000
outer loop
vertex -176.498001 -89.500000 3.638592
vertex -176.498001 -89.500000 11.638592
vertex -176.888184 -89.461571 3.638592
endloop
endfacet
facet normal -0.098012 -0.995185 0.000000
outer loop
vertex -176.888184 -89.461571 3.638592
vertex -176.498001 -89.500000 11.638592
vertex -176.888184 -89.461571 11.638592
endloop
endfacet
facet normal -0.290296 -0.956937 0.000000
outer loop
vertex -176.888184 -89.461571 3.638592
vertex -176.888184 -89.461571 11.638592
vertex -177.263382 -89.347755 3.638592
endloop
endfacet
facet normal -0.290274 -0.956944 0.000000
outer loop
vertex -177.263382 -89.347755 3.638592
vertex -176.888184 -89.461571 11.638592
vertex -177.263382 -89.347755 11.638592
endloop
endfacet
facet normal -0.471396 -0.881922 0.000000
outer loop
vertex -177.263382 -89.347755 3.638592
vertex -177.263382 -89.347755 11.638592
vertex -177.609146 -89.162941 3.638592
endloop
endfacet
facet normal -0.471396 -0.881922 0.000000
outer loop
vertex -177.609146 -89.162941 3.638592
vertex -177.263382 -89.347755 11.638592
vertex -177.609146 -89.162941 11.638592
endloop
endfacet
facet normal -0.634397 -0.773007 0.000000
outer loop
vertex -177.609146 -89.162941 3.638592
vertex -177.609146 -89.162941 11.638592
vertex -177.912216 -88.914215 3.638592
endloop
endfacet
facet normal -0.634397 -0.773007 0.000000
outer loop
vertex -177.912216 -88.914215 3.638592
vertex -177.609146 -89.162941 11.638592
vertex -177.912216 -88.914215 11.638592
endloop
endfacet
facet normal -0.772986 -0.634423 0.000000
outer loop
vertex -177.912216 -88.914215 3.638592
vertex -177.912216 -88.914215 11.638592
vertex -178.160950 -88.611137 3.638592
endloop
endfacet
facet normal -0.773024 -0.634376 0.000000
outer loop
vertex -178.160950 -88.611137 3.638592
vertex -177.912216 -88.914215 11.638592
vertex -178.160950 -88.611137 11.638592
endloop
endfacet
facet normal -0.881926 -0.471388 0.000000
outer loop
vertex -178.160950 -88.611137 3.638592
vertex -178.160950 -88.611137 11.638592
vertex -178.345764 -88.265366 3.638592
endloop
endfacet
facet normal -0.881926 -0.471388 0.000000
outer loop
vertex -178.345764 -88.265366 3.638592
vertex -178.160950 -88.611137 11.638592
vertex -178.345764 -88.265366 11.638592
endloop
endfacet
facet normal -0.956926 -0.290331 0.000000
outer loop
vertex -178.345764 -88.265366 3.638592
vertex -178.345764 -88.265366 11.638592
vertex -178.459579 -87.890182 3.638592
endloop
endfacet
facet normal -0.956948 -0.290260 0.000000
outer loop
vertex -178.459579 -87.890182 3.638592
vertex -178.345764 -88.265366 11.638592
vertex -178.459579 -87.890182 11.638592
endloop
endfacet
facet normal -0.995187 -0.097997 0.000000
outer loop
vertex -178.459579 -87.890182 3.638592
vertex -178.459579 -87.890182 11.638592
vertex -178.498001 -87.500000 3.638592
endloop
endfacet
facet normal -0.995187 -0.097997 0.000000
outer loop
vertex -178.498001 -87.500000 3.638592
vertex -178.459579 -87.890182 11.638592
vertex -178.498001 -87.500000 11.638592
endloop
endfacet
facet normal 0.098016 0.995185 0.000000
outer loop
vertex -127.498009 -61.500000 3.638592
vertex -127.498009 -61.500000 11.638592
vertex -127.107826 -61.538429 3.638592
endloop
endfacet
facet normal 0.098016 0.995185 0.000000
outer loop
vertex -127.107826 -61.538429 3.638592
vertex -127.498009 -61.500000 11.638592
vertex -127.107826 -61.538429 11.638592
endloop
endfacet
facet normal 0.290287 0.956940 0.000000
outer loop
vertex -127.107826 -61.538429 3.638592
vertex -127.107826 -61.538429 11.638592
vertex -126.732643 -61.652241 3.638592
endloop
endfacet
facet normal 0.290287 0.956940 0.000000
outer loop
vertex -126.732643 -61.652241 3.638592
vertex -127.107826 -61.538429 11.638592
vertex -126.732643 -61.652241 11.638592
endloop
endfacet
facet normal 0.471387 0.881926 0.000000
outer loop
vertex -126.732643 -61.652241 3.638592
vertex -126.732643 -61.652241 11.638592
vertex -126.386871 -61.837059 3.638592
endloop
endfacet
facet normal 0.471404 0.881918 0.000000
outer loop
vertex -126.386871 -61.837059 3.638592
vertex -126.732643 -61.652241 11.638592
vertex -126.386871 -61.837059 11.638592
endloop
endfacet
facet normal 0.634397 0.773007 0.000000
outer loop
vertex -126.386871 -61.837059 3.638592
vertex -126.386871 -61.837059 11.638592
vertex -126.083794 -62.085785 3.638592
endloop
endfacet
facet normal 0.634378 0.773023 0.000000
outer loop
vertex -126.083794 -62.085785 3.638592
vertex -126.386871 -61.837059 11.638592
vertex -126.083794 -62.085785 11.638592
endloop
endfacet
facet normal 0.773001 0.634404 0.000000
outer loop
vertex -126.083794 -62.085785 3.638592
vertex -126.083794 -62.085785 11.638592
vertex -125.835068 -62.388859 3.638592
endloop
endfacet
facet normal 0.773021 0.634381 0.000000
outer loop
vertex -125.835068 -62.388859 3.638592
vertex -126.083794 -62.085785 11.638592
vertex -125.835068 -62.388859 11.638592
endloop
endfacet
facet normal 0.881928 0.471384 0.000000
outer loop
vertex -125.835068 -62.388859 3.638592
vertex -125.835068 -62.388859 11.638592
vertex -125.650246 -62.734634 3.638592
endloop
endfacet
facet normal 0.881912 0.471414 0.000000
outer loop
vertex -125.650246 -62.734634 3.638592
vertex -125.835068 -62.388859 11.638592
vertex -125.650246 -62.734634 11.638592
endloop
endfacet
facet normal 0.956937 0.290296 0.000000
outer loop
vertex -125.650246 -62.734634 3.638592
vertex -125.650246 -62.734634 11.638592
vertex -125.536438 -63.109818 3.638592
endloop
endfacet
facet normal 0.956948 0.290260 0.000000
outer loop
vertex -125.536438 -63.109818 3.638592
vertex -125.650246 -62.734634 11.638592
vertex -125.536438 -63.109818 11.638592
endloop
endfacet
facet normal 0.995187 0.097997 0.000000
outer loop
vertex -125.536438 -63.109818 3.638592
vertex -125.536438 -63.109818 11.638592
vertex -125.498009 -63.500000 3.638592
endloop
endfacet
facet normal 0.995183 0.098035 0.000000
outer loop
vertex -125.498009 -63.500000 3.638592
vertex -125.536438 -63.109818 11.638592
vertex -125.498009 -63.500000 11.638592
endloop
endfacet
facet normal 1.000000 0.000000 0.000000
outer loop
vertex -125.498009 -63.500000 11.638592
vertex -125.498009 -87.500000 11.638592
vertex -125.498009 -63.500000 3.638592
endloop
endfacet
facet normal 1.000000 0.000000 0.000000
outer loop
vertex -125.498009 -63.500000 3.638592
vertex -125.498009 -87.500000 11.638592
vertex -125.498009 -87.500000 3.638592
endloop
endfacet
facet normal 0.995183 -0.098035 0.000000
outer loop
vertex -125.498009 -87.500000 3.638592
vertex -125.498009 -87.500000 11.638592
vertex -125.536438 -87.890182 3.638592
endloop
endfacet
facet normal 0.995187 -0.097997 0.000000
outer loop
vertex -125.536438 -87.890182 3.638592
vertex -125.498009 -87.500000 11.638592
vertex -125.536438 -87.890182 11.638592
endloop
endfacet
facet normal 0.956948 -0.290260 0.000000
outer loop
vertex -125.536438 -87.890182 3.638592
vertex -125.536438 -87.890182 11.638592
vertex -125.650246 -88.265366 3.638592
endloop
endfacet
facet normal 0.956937 -0.290296 0.000000
outer loop
vertex -125.650246 -88.265366 3.638592
vertex -125.536438 -87.890182 11.638592
vertex -125.650246 -88.265366 11.638592
endloop
endfacet
facet normal 0.881910 -0.471418 0.000000
outer loop
vertex -125.650246 -88.265366 3.638592
vertex -125.650246 -88.265366 11.638592
vertex -125.835068 -88.611137 3.638592
endloop
endfacet
facet normal 0.881926 -0.471388 0.000000
outer loop
vertex -125.835068 -88.611137 3.638592
vertex -125.650246 -88.265366 11.638592
vertex -125.835068 -88.611137 11.638592
endloop
endfacet
facet normal 0.773024 -0.634376 0.000000
outer loop
vertex -125.835068 -88.611137 3.638592
vertex -125.835068 -88.611137 11.638592
vertex -126.083794 -88.914215 3.638592
endloop
endfacet
facet normal 0.773005 -0.634400 0.000000
outer loop
vertex -126.083794 -88.914215 3.638592
vertex -125.835068 -88.611137 11.638592
vertex -126.083794 -88.914215 11.638592
endloop
endfacet
facet normal 0.634378 -0.773023 0.000000
outer loop
vertex -126.083794 -88.914215 3.638592
vertex -126.083794 -88.914215 11.638592
vertex -126.386871 -89.162941 3.638592
endloop
endfacet
facet normal 0.634397 -0.773007 0.000000
outer loop
vertex -126.386871 -89.162941 3.638592
vertex -126.083794 -88.914215 11.638592
vertex -126.386871 -89.162941 11.638592
endloop
endfacet
facet normal 0.471396 -0.881922 0.000000
outer loop
vertex -126.386871 -89.162941 3.638592
vertex -126.386871 -89.162941 11.638592
vertex -126.732643 -89.347755 3.638592
endloop
endfacet
facet normal 0.471380 -0.881930 0.000000
outer loop
vertex -126.732643 -89.347755 3.638592
vertex -126.386871 -89.162941 11.638592
vertex -126.732643 -89.347755 11.638592
endloop
endfacet
facet normal 0.290296 -0.956937 0.000000
outer loop
vertex -126.732643 -89.347755 3.638592
vertex -126.732643 -89.347755 11.638592
vertex -127.107826 -89.461571 3.638592
endloop
endfacet
facet normal 0.290296 -0.956937 0.000000
outer loop
vertex -127.107826 -89.461571 3.638592
vertex -126.732643 -89.347755 11.638592
vertex -127.107826 -89.461571 11.638592
endloop
endfacet
facet normal 0.098016 -0.995185 0.000000
outer loop
vertex -127.107826 -89.461571 3.638592
vertex -127.107826 -89.461571 11.638592
vertex -127.498009 -89.500000 3.638592
endloop
endfacet
facet normal 0.098016 -0.995185 0.000000
outer loop
vertex -127.498009 -89.500000 3.638592
vertex -127.107826 -89.461571 11.638592
vertex -127.498009 -89.500000 11.638592
endloop
endfacet
facet normal 0.000000 1.000000 0.000000
outer loop
vertex -176.498001 -61.500000 11.638592
vertex -127.498009 -61.500000 11.638592
vertex -176.498001 -61.500000 3.638592
endloop
endfacet
facet normal 0.000000 1.000000 0.000000
outer loop
vertex -176.498001 -61.500000 3.638592
vertex -127.498009 -61.500000 11.638592
vertex -127.498009 -61.500000 3.638592
endloop
endfacet
facet normal 1.000000 0.000000 0.000000
outer loop
vertex -176.498001 -87.500000 1.638592
vertex -176.498001 -63.500000 1.638592
vertex -176.498001 -87.500000 11.638592
endloop
endfacet
facet normal 1.000000 0.000000 0.000000
outer loop
vertex -176.498001 -87.500000 11.638592
vertex -176.498001 -63.500000 1.638592
vertex -176.498001 -63.500000 11.638592
endloop
endfacet
facet normal 0.000000 1.000000 0.000000
outer loop
vertex -127.498009 -87.500000 1.638592
vertex -176.498001 -87.500000 1.638592
vertex -127.498009 -87.500000 11.638592
endloop
endfacet
facet normal 0.000000 1.000000 0.000000
outer loop
vertex -127.498009 -87.500000 11.638592
vertex -176.498001 -87.500000 1.638592
vertex -176.498001 -87.500000 11.638592
endloop
endfacet
facet normal -1.000000 0.000000 0.000000
outer loop
vertex -127.498009 -63.500000 1.638592
vertex -127.498009 -87.500000 1.638592
vertex -127.498009 -63.500000 11.638592
endloop
endfacet
facet normal -1.000000 0.000000 0.000000
outer loop
vertex -127.498009 -63.500000 11.638592
vertex -127.498009 -87.500000 1.638592
vertex -127.498009 -87.500000 11.638592
endloop
endfacet
facet normal 0.000000 -1.000000 0.000000
outer loop
vertex -176.498001 -63.500000 1.638592
vertex -127.498009 -63.500000 1.638592
vertex -176.498001 -63.500000 11.638592
endloop
endfacet
facet normal 0.000000 -1.000000 0.000000
outer loop
vertex -176.498001 -63.500000 11.638592
vertex -127.498009 -63.500000 1.638592
vertex -127.498009 -63.500000 11.638592
endloop
endfacet
facet normal 0.000000 -1.000000 0.000000
outer loop
vertex -176.498001 -89.500000 3.638592
vertex -127.498009 -89.500000 3.638592
vertex -176.498001 -89.500000 11.638592
endloop
endfacet
facet normal 0.000000 -1.000000 0.000000
outer loop
vertex -176.498001 -89.500000 11.638592
vertex -127.498009 -89.500000 3.638592
vertex -127.498009 -89.500000 11.638592
endloop
endfacet
facet normal -1.000000 0.000000 0.000000
outer loop
vertex -121.998009 -60.000000 3.638592
vertex -121.998009 -91.000000 3.638592
vertex -121.998009 -60.000000 6.638592
endloop
endfacet
facet normal -1.000000 0.000000 0.000000
outer loop
vertex -121.998009 -60.000000 6.638592
vertex -121.998009 -91.000000 3.638592
vertex -121.998009 -91.000000 6.638592
endloop
endfacet
facet normal 1.000000 0.000000 0.000000
outer loop
vertex -119.998009 -95.000000 6.638592
vertex -119.998009 -95.000000 1.638592
vertex -119.998009 -58.083847 6.638592
endloop
endfacet
facet normal 1.000000 0.000000 0.000000
outer loop
vertex -119.998009 -58.083847 6.638592
vertex -119.998009 -95.000000 1.638592
vertex -119.998009 -56.000000 1.638592
endloop
endfacet
facet normal 1.000000 0.000000 0.000000
outer loop
vertex -119.998009 -58.083847 6.638592
vertex -119.998009 -56.000000 1.638592
vertex -119.998009 -56.000000 19.638592
endloop
endfacet
facet normal 1.000000 0.000000 0.000000
outer loop
vertex -119.998009 -56.000000 19.638592
vertex -119.998009 -58.083847 19.638592
vertex -119.998009 -58.083847 6.638592
endloop
endfacet
facet normal 0.000000 -1.000000 0.000000
outer loop
vertex -183.998001 -95.000000 1.638592
vertex -119.998009 -95.000000 1.638592
vertex -183.998001 -95.000000 6.638592
endloop
endfacet
facet normal 0.000000 -1.000000 0.000000
outer loop
vertex -183.998001 -95.000000 6.638592
vertex -119.998009 -95.000000 1.638592
vertex -119.998009 -95.000000 6.638592
endloop
endfacet
facet normal -1.000000 0.000000 0.000000
outer loop
vertex -183.998001 -56.000000 19.638592
vertex -183.998001 -56.000000 1.638592
vertex -183.998001 -58.083847 6.638592
endloop
endfacet
facet normal -1.000000 0.000000 0.000000
outer loop
vertex -183.998001 -58.083847 6.638592
vertex -183.998001 -56.000000 1.638592
vertex -183.998001 -95.000000 1.638592
endloop
endfacet
facet normal -1.000000 0.000000 0.000000
outer loop
vertex -183.998001 -58.083847 6.638592
vertex -183.998001 -95.000000 1.638592
vertex -183.998001 -95.000000 6.638592
endloop
endfacet
facet normal -1.000000 0.000000 0.000000
outer loop
vertex -183.998001 -58.083847 6.638592
vertex -183.998001 -58.083847 19.638592
vertex -183.998001 -56.000000 19.638592
endloop
endfacet
facet normal 0.000000 1.000000 0.000000
outer loop
vertex -119.998009 -56.000000 1.638592
vertex -183.998001 -56.000000 1.638592
vertex -119.998009 -56.000000 19.638592
endloop
endfacet
facet normal 0.000000 1.000000 0.000000
outer loop
vertex -119.998009 -56.000000 19.638592
vertex -183.998001 -56.000000 1.638592
vertex -183.998001 -56.000000 19.638592
endloop
endfacet
facet normal 0.000000 0.000000 1.000000
outer loop
vertex -180.571030 -58.083847 6.638592
vertex -183.998001 -58.083847 6.638592
vertex -180.963791 -58.248638 6.638592
endloop
endfacet
facet normal 0.000000 0.000000 1.000000
outer loop
vertex -180.963791 -58.248638 6.638592
vertex -183.998001 -58.083847 6.638592
vertex -181.312744 -58.492863 6.638592
endloop
endfacet
facet normal 0.000000 0.000000 1.000000
outer loop
vertex -181.312744 -58.492863 6.638592
vertex -183.998001 -58.083847 6.638592
vertex -181.602081 -58.805439 6.638592
endloop
endfacet
facet normal -0.000001 0.000000 1.000000
outer loop
vertex -181.602081 -58.805439 6.638592
vertex -183.998001 -58.083847 6.638592
vertex -181.818649 -59.172195 6.638592
endloop
endfacet
facet normal 0.000000 0.000000 1.000000
outer loop
vertex -181.818649 -59.172195 6.638592
vertex -183.998001 -58.083847 6.638592
vertex -181.952652 -59.576492 6.638592
endloop
endfacet
facet normal 0.000000 0.000000 1.000000
outer loop
vertex -181.952652 -59.576492 6.638592
vertex -183.998001 -58.083847 6.638592
vertex -181.998001 -60.000000 6.638592
endloop
endfacet
facet normal 0.000000 0.000000 1.000000
outer loop
vertex -181.998001 -60.000000 6.638592
vertex -183.998001 -58.083847 6.638592
vertex -181.998001 -91.000000 6.638592
endloop
endfacet
facet normal 0.000000 0.000000 1.000000
outer loop
vertex -181.998001 -91.000000 6.638592
vertex -183.998001 -58.083847 6.638592
vertex -183.998001 -95.000000 6.638592
endloop
endfacet
facet normal 0.000004 0.000000 1.000000
outer loop
vertex -181.998001 -91.000000 6.638592
vertex -183.998001 -95.000000 6.638592
vertex -181.959579 -91.390182 6.638592
endloop
endfacet
facet normal -0.000003 0.000000 1.000000
outer loop
vertex -181.959579 -91.390182 6.638592
vertex -183.998001 -95.000000 6.638592
vertex -181.845764 -91.765366 6.638592
endloop
endfacet
facet normal 0.000003 0.000000 1.000000
outer loop
vertex -181.845764 -91.765366 6.638592
vertex -183.998001 -95.000000 6.638592
vertex -181.660950 -92.111137 6.638592
endloop
endfacet
facet normal 0.000000 0.000000 1.000000
outer loop
vertex -181.660950 -92.111137 6.638592
vertex -183.998001 -95.000000 6.638592
vertex -181.412216 -92.414215 6.638592
endloop
endfacet
facet normal 0.000000 0.000000 1.000000
outer loop
vertex -181.412216 -92.414215 6.638592
vertex -183.998001 -95.000000 6.638592
vertex -181.109146 -92.662941 6.638592
endloop
endfacet
facet normal 0.000000 0.000000 1.000000
outer loop
vertex -181.109146 -92.662941 6.638592
vertex -183.998001 -95.000000 6.638592
vertex -180.763382 -92.847755 6.638592
endloop
endfacet
facet normal 0.000000 0.000000 1.000000
outer loop
vertex -180.763382 -92.847755 6.638592
vertex -183.998001 -95.000000 6.638592
vertex -180.388184 -92.961571 6.638592
endloop
endfacet
facet normal 0.000000 0.000000 1.000000
outer loop
vertex -180.388184 -92.961571 6.638592
vertex -183.998001 -95.000000 6.638592
vertex -179.998001 -93.000000 6.638592
endloop
endfacet
facet normal 0.000000 0.000000 1.000000
outer loop
vertex -179.998001 -93.000000 6.638592
vertex -183.998001 -95.000000 6.638592
vertex -123.998009 -93.000000 6.638592
endloop
endfacet
facet normal 0.000000 0.000000 1.000000
outer loop
vertex -123.998009 -93.000000 6.638592
vertex -183.998001 -95.000000 6.638592
vertex -119.998009 -95.000000 6.638592
endloop
endfacet
facet normal 0.000000 0.000000 1.000000
outer loop
vertex -123.998009 -93.000000 6.638592
vertex -119.998009 -95.000000 6.638592
vertex -123.607826 -92.961571 6.638592
endloop
endfacet
facet normal 0.000000 0.000000 1.000000
outer loop
vertex -123.607826 -92.961571 6.638592
vertex -119.998009 -95.000000 6.638592
vertex -123.232643 -92.847755 6.638592
endloop
endfacet
facet normal 0.000000 0.000000 1.000000
outer loop
vertex -123.232643 -92.847755 6.638592
vertex -119.998009 -95.000000 6.638592
vertex -122.886871 -92.662941 6.638592
endloop
endfacet
facet normal 0.000000 0.000000 1.000000
outer loop
vertex -122.886871 -92.662941 6.638592
vertex -119.998009 -95.000000 6.638592
vertex -122.583794 -92.414215 6.638592
endloop
endfacet
facet normal 0.000000 0.000000 1.000000
outer loop
vertex -122.583794 -92.414215 6.638592
vertex -119.998009 -95.000000 6.638592
vertex -122.335068 -92.111137 6.638592
endloop
endfacet
facet normal 0.000000 0.000000 1.000000
outer loop
vertex -122.335068 -92.111137 6.638592
vertex -119.998009 -95.000000 6.638592
vertex -122.150246 -91.765366 6.638592
endloop
endfacet
facet normal 0.000003 0.000000 1.000000
outer loop
vertex -122.150246 -91.765366 6.638592
vertex -119.998009 -95.000000 6.638592
vertex -122.036438 -91.390182 6.638592
endloop
endfacet
facet normal -0.000004 0.000000 1.000000
outer loop
vertex -122.036438 -91.390182 6.638592
vertex -119.998009 -95.000000 6.638592
vertex -121.998009 -91.000000 6.638592
endloop
endfacet
facet normal 0.000000 0.000000 1.000000
outer loop
vertex -121.998009 -91.000000 6.638592
vertex -119.998009 -95.000000 6.638592
vertex -119.998009 -58.083847 6.638592
endloop
endfacet
facet normal -0.000000 0.000000 1.000000
outer loop
vertex -121.998009 -91.000000 6.638592
vertex -119.998009 -58.083847 6.638592
vertex -121.998009 -60.000000 6.638592
endloop
endfacet
facet normal 0.000000 0.000000 1.000000
outer loop
vertex -121.998009 -60.000000 6.638592
vertex -119.998009 -58.083847 6.638592
vertex -122.043365 -59.576492 6.638592
endloop
endfacet
facet normal -0.000001 0.000000 1.000000
outer loop
vertex -122.043365 -59.576492 6.638592
vertex -119.998009 -58.083847 6.638592
vertex -122.177368 -59.172195 6.638592
endloop
endfacet
facet normal 0.000000 0.000000 1.000000
outer loop
vertex -122.177368 -59.172195 6.638592
vertex -119.998009 -58.083847 6.638592
vertex -122.393944 -58.805439 6.638592
endloop
endfacet
facet normal 0.000000 0.000000 1.000000
outer loop
vertex -122.393944 -58.805439 6.638592
vertex -119.998009 -58.083847 6.638592
vertex -122.683273 -58.492863 6.638592
endloop
endfacet
facet normal -0.000000 0.000000 1.000000
outer loop
vertex -122.683273 -58.492863 6.638592
vertex -119.998009 -58.083847 6.638592
vertex -123.032227 -58.248638 6.638592
endloop
endfacet
facet normal 0.000000 0.000000 1.000000
outer loop
vertex -123.032227 -58.248638 6.638592
vertex -119.998009 -58.083847 6.638592
vertex -123.424980 -58.083847 6.638592
endloop
endfacet
facet normal 0.000000 0.000000 -1.000000
outer loop
vertex -176.498001 -63.500000 1.638592
vertex -119.998009 -56.000000 1.638592
vertex -127.498009 -63.500000 1.638592
endloop
endfacet
facet normal 0.000000 0.000000 -1.000000
outer loop
vertex -127.498009 -63.500000 1.638592
vertex -119.998009 -56.000000 1.638592
vertex -119.998009 -95.000000 1.638592
endloop
endfacet
facet normal -0.000000 0.000000 -1.000000
outer loop
vertex -127.498009 -63.500000 1.638592
vertex -119.998009 -95.000000 1.638592
vertex -127.498009 -87.500000 1.638592
endloop
endfacet
facet normal 0.000000 0.000000 -1.000000
outer loop
vertex -127.498009 -87.500000 1.638592
vertex -119.998009 -95.000000 1.638592
vertex -183.998001 -95.000000 1.638592
endloop
endfacet
facet normal 0.000000 0.000000 -1.000000
outer loop
vertex -127.498009 -87.500000 1.638592
vertex -183.998001 -95.000000 1.638592
vertex -176.498001 -87.500000 1.638592
endloop
endfacet
facet normal 0.000000 0.000000 -1.000000
outer loop
vertex -176.498001 -87.500000 1.638592
vertex -183.998001 -95.000000 1.638592
vertex -176.498001 -63.500000 1.638592
endloop
endfacet
facet normal -0.000000 0.000000 -1.000000
outer loop
vertex -176.498001 -63.500000 1.638592
vertex -183.998001 -95.000000 1.638592
vertex -183.998001 -56.000000 1.638592
endloop
endfacet
facet normal 0.000000 0.000000 -1.000000
outer loop
vertex -176.498001 -63.500000 1.638592
vertex -183.998001 -56.000000 1.638592
vertex -119.998009 -56.000000 1.638592
endloop
endfacet
endsolid HUAYU BIG FAN to MSI Pulse76 v1.001
