solid HUAYU BIG FAN to MSI Pulse76 v1.003
facet normal 0.866026 0.000000 -0.500000
outer loop
vertex -115.956558 -152.638596 8.638592
vertex -119.998009 -161.000000 1.638592
vertex -115.956558 -136.638596 8.638592
endloop
endfacet
facet normal 0.866026 0.000000 -0.500000
outer loop
vertex -115.956558 -136.638596 8.638592
vertex -119.998009 -161.000000 1.638592
vertex -119.998009 -122.000000 1.638592
endloop
endfacet
facet normal 0.866025 0.000000 -0.500000
outer loop
vertex -115.956558 -136.638596 8.638592
vertex -119.998009 -122.000000 1.638592
vertex -114.801857 -122.000000 10.638592
endloop
endfacet
facet normal 0.866024 0.000000 -0.500002
outer loop
vertex -114.801857 -152.638596 10.638592
vertex -114.801857 -161.000000 10.638592
vertex -115.956558 -152.638596 8.638592
endloop
endfacet
facet normal 0.866026 0.000000 -0.499999
outer loop
vertex -115.956558 -152.638596 8.638592
vertex -114.801857 -161.000000 10.638592
vertex -119.998009 -161.000000 1.638592
endloop
endfacet
facet normal 0.866026 0.000000 -0.499999
outer loop
vertex -114.801857 -122.000000 10.638592
vertex -114.801857 -136.638596 10.638592
vertex -115.956558 -136.638596 8.638592
endloop
endfacet
facet normal -0.939692 0.000000 -0.342022
outer loop
vertex -186.545807 -136.638596 8.638592
vertex -183.998001 -161.000000 1.638592
vertex -186.545807 -152.638596 8.638592
endloop
endfacet
facet normal -0.939692 -0.000003 -0.342021
outer loop
vertex -186.545807 -152.638596 8.638592
vertex -183.998001 -161.000000 1.638592
vertex -187.273743 -161.000000 10.638592
endloop
endfacet
facet normal -0.939693 0.000000 -0.342019
outer loop
vertex -186.545807 -152.638596 8.638592
vertex -187.273743 -161.000000 10.638592
vertex -187.273743 -152.638596 10.638592
endloop
endfacet
facet normal -0.939693 0.000000 -0.342018
outer loop
vertex -187.273743 -136.638596 10.638592
vertex -187.273743 -122.000000 10.638592
vertex -186.545807 -136.638596 8.638592
endloop
endfacet
facet normal -0.939692 0.000002 -0.342021
outer loop
vertex -186.545807 -136.638596 8.638592
vertex -187.273743 -122.000000 10.638592
vertex -183.998001 -122.000000 1.638592
endloop
endfacet
facet normal -0.939692 0.000000 -0.342022
outer loop
vertex -186.545807 -136.638596 8.638592
vertex -183.998001 -122.000000 1.638592
vertex -183.998001 -161.000000 1.638592
endloop
endfacet
facet normal 0.000000 -1.000000 0.000000
outer loop
vertex -120.498009 -136.638596 8.638592
vertex -115.956558 -136.638596 8.638592
vertex -120.359413 -136.638596 8.777184
endloop
endfacet
facet normal 0.000000 -1.000000 0.000003
outer loop
vertex -120.359413 -136.638596 8.777184
vertex -115.956558 -136.638596 8.638592
vertex -114.801857 -136.638596 10.638592
endloop
endfacet
facet normal 0.000000 -1.000000 0.000000
outer loop
vertex -120.359413 -136.638596 8.777184
vertex -114.801857 -136.638596 10.638592
vertex -181.496506 -136.638596 8.777184
endloop
endfacet
facet normal 0.000000 -1.000000 0.000000
outer loop
vertex -181.496506 -136.638596 8.777184
vertex -114.801857 -136.638596 10.638592
vertex -187.273743 -136.638596 10.638592
endloop
endfacet
facet normal 0.000000 -1.000000 0.000003
outer loop
vertex -181.496506 -136.638596 8.777184
vertex -187.273743 -136.638596 10.638592
vertex -186.545807 -136.638596 8.638592
endloop
endfacet
facet normal 0.000000 -1.000000 -0.000062
outer loop
vertex -186.545807 -136.638596 8.638592
vertex -181.399460 -136.638596 8.638592
vertex -181.496506 -136.638596 8.777184
endloop
endfacet
facet normal 0.000000 1.000000 0.000000
outer loop
vertex -186.545807 -152.638596 8.638592
vertex -187.273743 -152.638596 10.638592
vertex -115.956558 -152.638596 8.638592
endloop
endfacet
facet normal 0.000000 1.000000 0.000000
outer loop
vertex -115.956558 -152.638596 8.638592
vertex -187.273743 -152.638596 10.638592
vertex -114.801857 -152.638596 10.638592
endloop
endfacet
facet normal 0.000000 0.000000 1.000000
outer loop
vertex -115.956558 -136.638596 8.638592
vertex -120.498009 -152.012100 8.638592
vertex -115.956558 -152.638596 8.638592
endloop
endfacet
facet normal 0.000000 0.000000 1.000000
outer loop
vertex -115.956558 -152.638596 8.638592
vertex -120.498009 -152.012100 8.638592
vertex -181.399460 -152.012100 8.638592
endloop
endfacet
facet normal 0.000000 0.000000 1.000000
outer loop
vertex -115.956558 -152.638596 8.638592
vertex -181.399460 -152.012100 8.638592
vertex -186.545807 -152.638596 8.638592
endloop
endfacet
facet normal 0.000000 0.000000 1.000000
outer loop
vertex -186.545807 -152.638596 8.638592
vertex -181.399460 -152.012100 8.638592
vertex -186.545807 -136.638596 8.638592
endloop
endfacet
facet normal 0.000000 0.000000 1.000000
outer loop
vertex -186.545807 -136.638596 8.638592
vertex -181.399460 -152.012100 8.638592
vertex -181.399460 -136.638596 8.638592
endloop
endfacet
facet normal 0.000000 0.000000 1.000000
outer loop
vertex -115.956558 -136.638596 8.638592
vertex -120.498009 -136.638596 8.638592
vertex -120.498009 -152.012100 8.638592
endloop
endfacet
facet normal 0.000000 -0.707107 -0.707107
outer loop
vertex -120.359413 -136.638596 8.777184
vertex -181.496506 -136.638596 8.777184
vertex -127.498009 -129.500000 1.638592
endloop
endfacet
facet normal 0.000000 -0.707106 -0.707108
outer loop
vertex -127.498009 -129.500000 1.638592
vertex -181.496506 -136.638596 8.777184
vertex -176.498001 -129.500000 1.638592
endloop
endfacet
facet normal 0.000000 0.000000 1.000000
outer loop
vertex -114.801857 -136.638596 10.638592
vertex -114.801857 -122.000000 10.638592
vertex -187.273743 -136.638596 10.638592
endloop
endfacet
facet normal 0.000000 0.000000 1.000000
outer loop
vertex -187.273743 -136.638596 10.638592
vertex -114.801857 -122.000000 10.638592
vertex -187.273743 -122.000000 10.638592
endloop
endfacet
facet normal 0.000000 0.000000 1.000000
outer loop
vertex -187.273743 -152.638596 10.638592
vertex -187.273743 -161.000000 10.638592
vertex -114.801857 -152.638596 10.638592
endloop
endfacet
facet normal 0.000000 0.000000 1.000000
outer loop
vertex -114.801857 -152.638596 10.638592
vertex -187.273743 -161.000000 10.638592
vertex -114.801857 -161.000000 10.638592
endloop
endfacet
facet normal -0.707108 0.000000 0.707106
outer loop
vertex -120.498009 -152.012100 8.638592
vertex -120.498009 -136.638596 8.638592
vertex -127.498009 -153.500000 1.638592
endloop
endfacet
facet normal -0.707107 0.000000 0.707107
outer loop
vertex -127.498009 -153.500000 1.638592
vertex -120.498009 -136.638596 8.638592
vertex -127.498009 -129.500000 1.638592
endloop
endfacet
facet normal -0.707135 0.000085 0.707078
outer loop
vertex -127.498009 -129.500000 1.638592
vertex -120.498009 -136.638596 8.638592
vertex -120.359413 -136.638596 8.777184
endloop
endfacet
facet normal 0.000000 0.978148 -0.207908
outer loop
vertex -120.498009 -152.012100 8.638592
vertex -127.498009 -153.500000 1.638592
vertex -181.399460 -152.012100 8.638592
endloop
endfacet
facet normal 0.000000 0.978147 -0.207915
outer loop
vertex -181.399460 -152.012100 8.638592
vertex -127.498009 -153.500000 1.638592
vertex -176.498001 -153.500000 1.638592
endloop
endfacet
facet normal 0.819152 0.000000 0.573576
outer loop
vertex -181.399460 -152.012100 8.638592
vertex -176.498001 -153.500000 1.638592
vertex -181.399460 -136.638596 8.638592
endloop
endfacet
facet normal 0.819152 0.000000 0.573577
outer loop
vertex -181.399460 -136.638596 8.638592
vertex -176.498001 -153.500000 1.638592
vertex -176.498001 -129.500000 1.638592
endloop
endfacet
facet normal 0.819152 0.000000 0.573576
outer loop
vertex -181.399460 -136.638596 8.638592
vertex -176.498001 -129.500000 1.638592
vertex -181.496506 -136.638596 8.777184
endloop
endfacet
facet normal 0.000000 1.000000 0.000000
outer loop
vertex -183.998001 -122.000000 1.638592
vertex -187.273743 -122.000000 10.638592
vertex -119.998009 -122.000000 1.638592
endloop
endfacet
facet normal 0.000000 1.000000 0.000000
outer loop
vertex -119.998009 -122.000000 1.638592
vertex -187.273743 -122.000000 10.638592
vertex -114.801857 -122.000000 10.638592
endloop
endfacet
facet normal 0.000000 -1.000000 0.000000
outer loop
vertex -183.998001 -161.000000 1.638592
vertex -119.998009 -161.000000 1.638592
vertex -187.273743 -161.000000 10.638592
endloop
endfacet
facet normal 0.000000 -1.000000 0.000001
outer loop
vertex -187.273743 -161.000000 10.638592
vertex -119.998009 -161.000000 1.638592
vertex -114.801857 -161.000000 10.638592
endloop
endfacet
facet normal 0.000000 0.000000 -1.000000
outer loop
vertex -127.498009 -153.500000 1.638592
vertex -183.998001 -161.000000 1.638592
vertex -176.498001 -153.500000 1.638592
endloop
endfacet
facet normal -0.000000 0.000000 -1.000000
outer loop
vertex -176.498001 -153.500000 1.638592
vertex -183.998001 -161.000000 1.638592
vertex -183.998001 -122.000000 1.638592
endloop
endfacet
facet normal 0.000000 0.000000 -1.000000
outer loop
vertex -176.498001 -153.500000 1.638592
vertex -183.998001 -122.000000 1.638592
vertex -176.498001 -129.500000 1.638592
endloop
endfacet
facet normal 0.000000 0.000000 -1.000000
outer loop
vertex -176.498001 -129.500000 1.638592
vertex -183.998001 -122.000000 1.638592
vertex -119.998009 -122.000000 1.638592
endloop
endfacet
facet normal 0.000000 0.000000 -1.000000
outer loop
vertex -176.498001 -129.500000 1.638592
vertex -119.998009 -122.000000 1.638592
vertex -127.498009 -129.500000 1.638592
endloop
endfacet
facet normal 0.000000 0.000000 -1.000000
outer loop
vertex -127.498009 -129.500000 1.638592
vertex -119.998009 -122.000000 1.638592
vertex -127.498009 -153.500000 1.638592
endloop
endfacet
facet normal 0.000000 0.000000 -1.000000
outer loop
vertex -127.498009 -153.500000 1.638592
vertex -119.998009 -122.000000 1.638592
vertex -119.998009 -161.000000 1.638592
endloop
endfacet
facet normal 0.000000 0.000000 -1.000000
outer loop
vertex -127.498009 -153.500000 1.638592
vertex -119.998009 -161.000000 1.638592
vertex -183.998001 -161.000000 1.638592
endloop
endfacet
endsolid HUAYU BIG FAN to MSI Pulse76 v1.003
