solid HUAYU BIG FAN to MSI Pulse76 v1.002
facet normal 0.000000 1.000000 0.000000
outer loop
vertex -187.441513 -94.000000 12.000000
vertex -112.225151 -94.000000 12.000000
vertex -187.441513 -94.000000 10.000000
endloop
endfacet
facet normal 0.000000 1.000000 0.000000
outer loop
vertex -187.441513 -94.000000 10.000000
vertex -112.225151 -94.000000 12.000000
vertex -112.225151 -94.000000 10.000000
endloop
endfacet
facet normal 1.000000 0.000000 0.000000
outer loop
vertex -116.558479 -109.000000 10.000000
vertex -116.558479 -109.000000 12.000000
vertex -116.558479 -110.000000 10.000000
endloop
endfacet
facet normal 1.000000 0.000000 0.000000
outer loop
vertex -116.558479 -110.000000 10.000000
vertex -116.558479 -109.000000 12.000000
vertex -116.558479 -110.000000 12.000000
endloop
endfacet
facet normal -1.000000 0.000000 0.000000
outer loop
vertex -191.774857 -109.000000 12.000000
vertex -191.774857 -109.000000 10.000000
vertex -191.774857 -110.000000 12.000000
endloop
endfacet
facet normal -1.000000 0.000000 0.000000
outer loop
vertex -191.774857 -110.000000 12.000000
vertex -191.774857 -109.000000 10.000000
vertex -191.774857 -110.000000 10.000000
endloop
endfacet
facet normal 0.000000 -1.000000 0.000000
outer loop
vertex -116.558479 -110.000000 12.000000
vertex -191.774857 -110.000000 12.000000
vertex -116.558479 -110.000000 10.000000
endloop
endfacet
facet normal 0.000000 -1.000000 0.000000
outer loop
vertex -116.558479 -110.000000 10.000000
vertex -191.774857 -110.000000 12.000000
vertex -191.774857 -110.000000 10.000000
endloop
endfacet
facet normal -1.000000 0.000000 0.000000
outer loop
vertex -187.441513 -96.000000 10.000000
vertex -187.441513 -96.000000 12.000000
vertex -187.441513 -94.000000 10.000000
endloop
endfacet
facet normal -1.000000 0.000000 0.000000
outer loop
vertex -187.441513 -94.000000 10.000000
vertex -187.441513 -96.000000 12.000000
vertex -187.441513 -94.000000 12.000000
endloop
endfacet
facet normal 1.000000 0.000000 0.000000
outer loop
vertex -112.225151 -96.000000 12.000000
vertex -112.225151 -96.000000 10.000000
vertex -112.225151 -94.000000 12.000000
endloop
endfacet
facet normal 1.000000 0.000000 0.000000
outer loop
vertex -112.225151 -94.000000 12.000000
vertex -112.225151 -96.000000 10.000000
vertex -112.225151 -94.000000 10.000000
endloop
endfacet
facet normal 0.000000 0.000000 -1.000000
outer loop
vertex -174.164215 -99.500000 10.000000
vertex -168.978638 -99.500000 10.000000
vertex -172.021362 -105.500000 10.000000
endloop
endfacet
facet normal 0.000000 0.000000 -1.000000
outer loop
vertex -172.021362 -105.500000 10.000000
vertex -168.978638 -99.500000 10.000000
vertex -166.835785 -105.500000 10.000000
endloop
endfacet
facet normal 0.000000 0.000000 -1.000000
outer loop
vertex -172.021362 -105.500000 10.000000
vertex -166.835785 -105.500000 10.000000
vertex -191.774857 -110.000000 10.000000
endloop
endfacet
facet normal 0.000000 0.000000 -1.000000
outer loop
vertex -191.774857 -110.000000 10.000000
vertex -166.835785 -105.500000 10.000000
vertex -156.256210 -105.500000 10.000000
endloop
endfacet
facet normal 0.000000 0.000000 -1.000000
outer loop
vertex -191.774857 -110.000000 10.000000
vertex -156.256210 -105.500000 10.000000
vertex -116.558479 -110.000000 10.000000
endloop
endfacet
facet normal 0.000000 0.000000 -1.000000
outer loop
vertex -116.558479 -110.000000 10.000000
vertex -156.256210 -105.500000 10.000000
vertex -151.172348 -105.500000 10.000000
endloop
endfacet
facet normal 0.000000 0.000000 -1.000000
outer loop
vertex -116.558479 -110.000000 10.000000
vertex -151.172348 -105.500000 10.000000
vertex -136.125000 -105.500000 10.000000
endloop
endfacet
facet normal 0.000000 0.000000 -1.000000
outer loop
vertex -168.978638 -99.500000 10.000000
vertex -174.164215 -99.500000 10.000000
vertex -187.441513 -96.000000 10.000000
endloop
endfacet
facet normal 0.000000 0.000000 -1.000000
outer loop
vertex -187.441513 -96.000000 10.000000
vertex -174.164215 -99.500000 10.000000
vertex -184.918854 -99.500000 10.000000
endloop
endfacet
facet normal 0.000000 0.000000 -1.000000
outer loop
vertex -187.441513 -96.000000 10.000000
vertex -184.918854 -99.500000 10.000000
vertex -186.918854 -105.500000 10.000000
endloop
endfacet
facet normal 0.000000 0.000000 -1.000000
outer loop
vertex -187.441513 -96.000000 10.000000
vertex -186.918854 -105.500000 10.000000
vertex -191.774857 -109.000000 10.000000
endloop
endfacet
facet normal 0.000000 0.000000 -1.000000
outer loop
vertex -191.774857 -109.000000 10.000000
vertex -186.918854 -105.500000 10.000000
vertex -172.021362 -105.500000 10.000000
endloop
endfacet
facet normal 0.000000 0.000000 -1.000000
outer loop
vertex -191.774857 -109.000000 10.000000
vertex -172.021362 -105.500000 10.000000
vertex -191.774857 -110.000000 10.000000
endloop
endfacet
facet normal 0.000000 0.000000 -1.000000
outer loop
vertex -156.256210 -105.500000 10.000000
vertex -154.827652 -99.500000 10.000000
vertex -151.172348 -105.500000 10.000000
endloop
endfacet
facet normal 0.000000 0.000000 -1.000000
outer loop
vertex -151.172348 -105.500000 10.000000
vertex -154.827652 -99.500000 10.000000
vertex -149.743790 -99.500000 10.000000
endloop
endfacet
facet normal 0.000000 0.000000 -1.000000
outer loop
vertex -149.743790 -99.500000 10.000000
vertex -154.827652 -99.500000 10.000000
vertex -187.441513 -94.000000 10.000000
endloop
endfacet
facet normal 0.000000 0.000000 -1.000000
outer loop
vertex -149.743790 -99.500000 10.000000
vertex -187.441513 -94.000000 10.000000
vertex -112.225151 -94.000000 10.000000
endloop
endfacet
facet normal 0.000000 0.000000 -1.000000
outer loop
vertex -154.827652 -99.500000 10.000000
vertex -168.978638 -99.500000 10.000000
vertex -187.441513 -94.000000 10.000000
endloop
endfacet
facet normal 0.000000 0.000000 -1.000000
outer loop
vertex -187.441513 -94.000000 10.000000
vertex -168.978638 -99.500000 10.000000
vertex -187.441513 -96.000000 10.000000
endloop
endfacet
facet normal 0.000000 0.000000 -1.000000
outer loop
vertex -119.081139 -105.500000 10.000000
vertex -116.558479 -109.000000 10.000000
vertex -130.875000 -105.500000 10.000000
endloop
endfacet
facet normal 0.000000 0.000000 -1.000000
outer loop
vertex -130.875000 -105.500000 10.000000
vertex -116.558479 -109.000000 10.000000
vertex -136.125000 -105.500000 10.000000
endloop
endfacet
facet normal 0.000000 0.000000 -1.000000
outer loop
vertex -130.875000 -105.500000 10.000000
vertex -136.125000 -105.500000 10.000000
vertex -133.375000 -99.500000 10.000000
endloop
endfacet
facet normal 0.000000 0.000000 -1.000000
outer loop
vertex -133.375000 -99.500000 10.000000
vertex -136.125000 -105.500000 10.000000
vertex -138.625000 -99.500000 10.000000
endloop
endfacet
facet normal 0.000000 0.000000 -1.000000
outer loop
vertex -133.375000 -99.500000 10.000000
vertex -138.625000 -99.500000 10.000000
vertex -112.225151 -94.000000 10.000000
endloop
endfacet
facet normal 0.000000 0.000000 -1.000000
outer loop
vertex -112.225151 -94.000000 10.000000
vertex -138.625000 -99.500000 10.000000
vertex -149.743790 -99.500000 10.000000
endloop
endfacet
facet normal 0.000000 0.000000 -1.000000
outer loop
vertex -119.081139 -105.500000 10.000000
vertex -117.081139 -99.500000 10.000000
vertex -116.558479 -109.000000 10.000000
endloop
endfacet
facet normal 0.000000 0.000000 -1.000000
outer loop
vertex -116.558479 -109.000000 10.000000
vertex -117.081139 -99.500000 10.000000
vertex -112.225151 -96.000000 10.000000
endloop
endfacet
facet normal 0.000000 0.000000 -1.000000
outer loop
vertex -112.225151 -96.000000 10.000000
vertex -117.081139 -99.500000 10.000000
vertex -133.375000 -99.500000 10.000000
endloop
endfacet
facet normal 0.000000 0.000000 -1.000000
outer loop
vertex -112.225151 -96.000000 10.000000
vertex -133.375000 -99.500000 10.000000
vertex -112.225151 -94.000000 10.000000
endloop
endfacet
facet normal 0.000000 0.000000 -1.000000
outer loop
vertex -116.558479 -109.000000 10.000000
vertex -116.558479 -110.000000 10.000000
vertex -136.125000 -105.500000 10.000000
endloop
endfacet
facet normal 0.000000 1.000000 0.000000
outer loop
vertex -173.459503 -98.500000 12.000000
vertex -185.639618 -98.500000 12.000000
vertex -173.459503 -98.500000 13.500000
endloop
endfacet
facet normal 0.000000 1.000000 0.000000
outer loop
vertex -173.459503 -98.500000 13.500000
vertex -185.639618 -98.500000 12.000000
vertex -185.639618 -98.500000 13.500000
endloop
endfacet
facet normal -0.948682 0.316232 0.000000
outer loop
vertex -185.639618 -98.500000 12.000000
vertex -188.306290 -106.500000 12.000000
vertex -185.639618 -98.500000 13.500000
endloop
endfacet
facet normal -0.948683 0.316228 0.000000
outer loop
vertex -185.639618 -98.500000 13.500000
vertex -188.306290 -106.500000 12.000000
vertex -188.306290 -106.500000 13.500000
endloop
endfacet
facet normal 0.000000 -1.000000 0.000000
outer loop
vertex -188.306290 -106.500000 12.000000
vertex -170.602356 -106.500000 12.000000
vertex -188.306290 -106.500000 13.500000
endloop
endfacet
facet normal 0.000000 -1.000000 0.000000
outer loop
vertex -188.306290 -106.500000 13.500000
vertex -170.602356 -106.500000 12.000000
vertex -170.602356 -106.500000 13.500000
endloop
endfacet
facet normal 0.000000 -1.000000 0.000000
outer loop
vertex -174.164215 -99.500000 13.500000
vertex -184.918854 -99.500000 13.500000
vertex -174.164215 -99.500000 10.000000
endloop
endfacet
facet normal 0.000000 -1.000000 0.000000
outer loop
vertex -174.164215 -99.500000 10.000000
vertex -184.918854 -99.500000 13.500000
vertex -184.918854 -99.500000 10.000000
endloop
endfacet
facet normal 0.948683 -0.316228 0.000000
outer loop
vertex -184.918854 -99.500000 13.500000
vertex -186.918854 -105.500000 13.500000
vertex -184.918854 -99.500000 10.000000
endloop
endfacet
facet normal 0.948683 -0.316228 0.000000
outer loop
vertex -184.918854 -99.500000 10.000000
vertex -186.918854 -105.500000 13.500000
vertex -186.918854 -105.500000 10.000000
endloop
endfacet
facet normal 0.000000 1.000000 0.000000
outer loop
vertex -186.918854 -105.500000 13.500000
vertex -172.021362 -105.500000 13.500000
vertex -186.918854 -105.500000 10.000000
endloop
endfacet
facet normal 0.000000 1.000000 0.000000
outer loop
vertex -186.918854 -105.500000 10.000000
vertex -172.021362 -105.500000 13.500000
vertex -172.021362 -105.500000 10.000000
endloop
endfacet
facet normal -0.941742 -0.336336 0.000000
outer loop
vertex -172.021362 -105.500000 13.500000
vertex -174.164215 -99.500000 13.500000
vertex -172.021362 -105.500000 10.000000
endloop
endfacet
facet normal -0.941742 -0.336336 0.000000
outer loop
vertex -172.021362 -105.500000 10.000000
vertex -174.164215 -99.500000 13.500000
vertex -174.164215 -99.500000 10.000000
endloop
endfacet
facet normal 0.941742 0.336336 0.000000
outer loop
vertex -170.602356 -106.500000 12.000000
vertex -173.459503 -98.500000 12.000000
vertex -170.602356 -106.500000 13.500000
endloop
endfacet
facet normal 0.941741 0.336340 0.000000
outer loop
vertex -170.602356 -106.500000 13.500000
vertex -173.459503 -98.500000 12.000000
vertex -173.459503 -98.500000 13.500000
endloop
endfacet
facet normal 0.000000 0.000000 1.000000
outer loop
vertex -184.918854 -99.500000 13.500000
vertex -174.164215 -99.500000 13.500000
vertex -173.459503 -98.500000 13.500000
endloop
endfacet
facet normal 0.000000 0.000000 1.000000
outer loop
vertex -173.459503 -98.500000 13.500000
vertex -174.164215 -99.500000 13.500000
vertex -172.021362 -105.500000 13.500000
endloop
endfacet
facet normal 0.000000 0.000000 1.000000
outer loop
vertex -173.459503 -98.500000 13.500000
vertex -172.021362 -105.500000 13.500000
vertex -170.602356 -106.500000 13.500000
endloop
endfacet
facet normal 0.000000 0.000000 1.000000
outer loop
vertex -170.602356 -106.500000 13.500000
vertex -172.021362 -105.500000 13.500000
vertex -188.306290 -106.500000 13.500000
endloop
endfacet
facet normal 0.000000 0.000000 1.000000
outer loop
vertex -188.306290 -106.500000 13.500000
vertex -172.021362 -105.500000 13.500000
vertex -186.918854 -105.500000 13.500000
endloop
endfacet
facet normal 0.000000 0.000000 1.000000
outer loop
vertex -188.306290 -106.500000 13.500000
vertex -186.918854 -105.500000 13.500000
vertex -185.639618 -98.500000 13.500000
endloop
endfacet
facet normal 0.000000 0.000000 1.000000
outer loop
vertex -185.639618 -98.500000 13.500000
vertex -186.918854 -105.500000 13.500000
vertex -184.918854 -99.500000 13.500000
endloop
endfacet
facet normal 0.000000 0.000000 1.000000
outer loop
vertex -185.639618 -98.500000 13.500000
vertex -184.918854 -99.500000 13.500000
vertex -173.459503 -98.500000 13.500000
endloop
endfacet
facet normal 0.000000 -1.000000 0.000000
outer loop
vertex -167.540497 -106.500000 12.000000
vertex -155.466354 -106.500000 12.000000
vertex -167.540497 -106.500000 13.500000
endloop
endfacet
facet normal 0.000000 -1.000000 0.000000
outer loop
vertex -167.540497 -106.500000 13.500000
vertex -155.466354 -106.500000 12.000000
vertex -155.466354 -106.500000 13.500000
endloop
endfacet
facet normal 0.972807 -0.231619 0.000000
outer loop
vertex -155.466354 -106.500000 12.000000
vertex -153.561600 -98.500000 12.000000
vertex -155.466354 -106.500000 13.500000
endloop
endfacet
facet normal 0.972807 -0.231619 0.000000
outer loop
vertex -155.466354 -106.500000 13.500000
vertex -153.561600 -98.500000 12.000000
vertex -153.561600 -98.500000 13.500000
endloop
endfacet
facet normal 0.000000 1.000000 0.000000
outer loop
vertex -153.561600 -98.500000 12.000000
vertex -170.397644 -98.500000 12.000000
vertex -153.561600 -98.500000 13.500000
endloop
endfacet
facet normal 0.000000 1.000000 0.000000
outer loop
vertex -153.561600 -98.500000 13.500000
vertex -170.397644 -98.500000 12.000000
vertex -170.397644 -98.500000 13.500000
endloop
endfacet
facet normal 0.000000 -1.000000 0.000000
outer loop
vertex -154.827652 -99.500000 13.500000
vertex -168.978638 -99.500000 13.500000
vertex -154.827652 -99.500000 10.000000
endloop
endfacet
facet normal 0.000000 -1.000000 0.000000
outer loop
vertex -154.827652 -99.500000 10.000000
vertex -168.978638 -99.500000 13.500000
vertex -168.978638 -99.500000 10.000000
endloop
endfacet
facet normal 0.941742 0.336336 0.000000
outer loop
vertex -168.978638 -99.500000 13.500000
vertex -166.835785 -105.500000 13.500000
vertex -168.978638 -99.500000 10.000000
endloop
endfacet
facet normal 0.941742 0.336336 0.000000
outer loop
vertex -168.978638 -99.500000 10.000000
vertex -166.835785 -105.500000 13.500000
vertex -166.835785 -105.500000 10.000000
endloop
endfacet
facet normal 0.000000 1.000000 0.000000
outer loop
vertex -166.835785 -105.500000 13.500000
vertex -156.256210 -105.500000 13.500000
vertex -166.835785 -105.500000 10.000000
endloop
endfacet
facet normal 0.000000 1.000000 0.000000
outer loop
vertex -166.835785 -105.500000 10.000000
vertex -156.256210 -105.500000 13.500000
vertex -156.256210 -105.500000 10.000000
endloop
endfacet
facet normal -0.972806 0.231621 0.000000
outer loop
vertex -156.256210 -105.500000 13.500000
vertex -154.827652 -99.500000 13.500000
vertex -156.256210 -105.500000 10.000000
endloop
endfacet
facet normal -0.972807 0.231615 0.000000
outer loop
vertex -156.256210 -105.500000 10.000000
vertex -154.827652 -99.500000 13.500000
vertex -154.827652 -99.500000 10.000000
endloop
endfacet
facet normal -0.941742 -0.336336 0.000000
outer loop
vertex -170.397644 -98.500000 12.000000
vertex -167.540497 -106.500000 12.000000
vertex -170.397644 -98.500000 13.500000
endloop
endfacet
facet normal -0.941741 -0.336338 0.000000
outer loop
vertex -170.397644 -98.500000 13.500000
vertex -167.540497 -106.500000 12.000000
vertex -167.540497 -106.500000 13.500000
endloop
endfacet
facet normal 0.000000 0.000000 1.000000
outer loop
vertex -156.256210 -105.500000 13.500000
vertex -155.466354 -106.500000 13.500000
vertex -154.827652 -99.500000 13.500000
endloop
endfacet
facet normal 0.000000 0.000000 1.000000
outer loop
vertex -154.827652 -99.500000 13.500000
vertex -155.466354 -106.500000 13.500000
vertex -153.561600 -98.500000 13.500000
endloop
endfacet
facet normal 0.000000 0.000000 1.000000
outer loop
vertex -154.827652 -99.500000 13.500000
vertex -153.561600 -98.500000 13.500000
vertex -168.978638 -99.500000 13.500000
endloop
endfacet
facet normal 0.000000 0.000000 1.000000
outer loop
vertex -168.978638 -99.500000 13.500000
vertex -153.561600 -98.500000 13.500000
vertex -170.397644 -98.500000 13.500000
endloop
endfacet
facet normal 0.000000 0.000000 1.000000
outer loop
vertex -168.978638 -99.500000 13.500000
vertex -170.397644 -98.500000 13.500000
vertex -167.540497 -106.500000 13.500000
endloop
endfacet
facet normal 0.000000 0.000000 1.000000
outer loop
vertex -155.466354 -106.500000 13.500000
vertex -156.256210 -105.500000 13.500000
vertex -167.540497 -106.500000 13.500000
endloop
endfacet
facet normal 0.000000 0.000000 1.000000
outer loop
vertex -167.540497 -106.500000 13.500000
vertex -156.256210 -105.500000 13.500000
vertex -166.835785 -105.500000 13.500000
endloop
endfacet
facet normal 0.000000 0.000000 1.000000
outer loop
vertex -167.540497 -106.500000 13.500000
vertex -166.835785 -105.500000 13.500000
vertex -168.978638 -99.500000 13.500000
endloop
endfacet
facet normal 0.000000 1.000000 0.000000
outer loop
vertex -115.693710 -98.500000 12.000000
vertex -134.875000 -98.500000 12.000000
vertex -115.693710 -98.500000 13.500000
endloop
endfacet
facet normal 0.000000 1.000000 0.000000
outer loop
vertex -115.693710 -98.500000 13.500000
vertex -134.875000 -98.500000 12.000000
vertex -134.875000 -98.500000 13.500000
endloop
endfacet
facet normal -0.923078 -0.384613 0.000000
outer loop
vertex -134.875000 -98.500000 12.000000
vertex -131.541672 -106.500000 12.000000
vertex -134.875000 -98.500000 13.500000
endloop
endfacet
facet normal -0.923076 -0.384617 0.000000
outer loop
vertex -134.875000 -98.500000 13.500000
vertex -131.541672 -106.500000 12.000000
vertex -131.541672 -106.500000 13.500000
endloop
endfacet
facet normal 0.000000 -1.000000 0.000000
outer loop
vertex -131.541672 -106.500000 12.000000
vertex -118.360382 -106.500000 12.000000
vertex -131.541672 -106.500000 13.500000
endloop
endfacet
facet normal 0.000000 -1.000000 0.000000
outer loop
vertex -131.541672 -106.500000 13.500000
vertex -118.360382 -106.500000 12.000000
vertex -118.360382 -106.500000 13.500000
endloop
endfacet
facet normal -0.948683 0.316228 0.000000
outer loop
vertex -119.081139 -105.500000 13.500000
vertex -117.081139 -99.500000 13.500000
vertex -119.081139 -105.500000 10.000000
endloop
endfacet
facet normal -0.948683 0.316228 0.000000
outer loop
vertex -119.081139 -105.500000 10.000000
vertex -117.081139 -99.500000 13.500000
vertex -117.081139 -99.500000 10.000000
endloop
endfacet
facet normal 0.000000 -1.000000 0.000000
outer loop
vertex -117.081139 -99.500000 13.500000
vertex -133.375000 -99.500000 13.500000
vertex -117.081139 -99.500000 10.000000
endloop
endfacet
facet normal 0.000000 -1.000000 0.000000
outer loop
vertex -117.081139 -99.500000 10.000000
vertex -133.375000 -99.500000 13.500000
vertex -133.375000 -99.500000 10.000000
endloop
endfacet
facet normal 0.923077 0.384615 0.000000
outer loop
vertex -133.375000 -99.500000 13.500000
vertex -130.875000 -105.500000 13.500000
vertex -133.375000 -99.500000 10.000000
endloop
endfacet
facet normal 0.923077 0.384615 0.000000
outer loop
vertex -133.375000 -99.500000 10.000000
vertex -130.875000 -105.500000 13.500000
vertex -130.875000 -105.500000 10.000000
endloop
endfacet
facet normal 0.000000 1.000000 0.000000
outer loop
vertex -130.875000 -105.500000 13.500000
vertex -119.081139 -105.500000 13.500000
vertex -130.875000 -105.500000 10.000000
endloop
endfacet
facet normal 0.000000 1.000000 0.000000
outer loop
vertex -130.875000 -105.500000 10.000000
vertex -119.081139 -105.500000 13.500000
vertex -119.081139 -105.500000 10.000000
endloop
endfacet
facet normal 0.948683 -0.316228 0.000000
outer loop
vertex -118.360382 -106.500000 12.000000
vertex -115.693710 -98.500000 12.000000
vertex -118.360382 -106.500000 13.500000
endloop
endfacet
facet normal 0.948683 -0.316230 0.000000
outer loop
vertex -118.360382 -106.500000 13.500000
vertex -115.693710 -98.500000 12.000000
vertex -115.693710 -98.500000 13.500000
endloop
endfacet
facet normal 0.000000 0.000000 1.000000
outer loop
vertex -130.875000 -105.500000 13.500000
vertex -131.541672 -106.500000 13.500000
vertex -119.081139 -105.500000 13.500000
endloop
endfacet
facet normal 0.000000 0.000000 1.000000
outer loop
vertex -119.081139 -105.500000 13.500000
vertex -131.541672 -106.500000 13.500000
vertex -118.360382 -106.500000 13.500000
endloop
endfacet
facet normal 0.000000 0.000000 1.000000
outer loop
vertex -119.081139 -105.500000 13.500000
vertex -118.360382 -106.500000 13.500000
vertex -117.081139 -99.500000 13.500000
endloop
endfacet
facet normal 0.000000 0.000000 1.000000
outer loop
vertex -117.081139 -99.500000 13.500000
vertex -118.360382 -106.500000 13.500000
vertex -115.693710 -98.500000 13.500000
endloop
endfacet
facet normal 0.000000 0.000000 1.000000
outer loop
vertex -117.081139 -99.500000 13.500000
vertex -115.693710 -98.500000 13.500000
vertex -133.375000 -99.500000 13.500000
endloop
endfacet
facet normal 0.000000 0.000000 1.000000
outer loop
vertex -133.375000 -99.500000 13.500000
vertex -115.693710 -98.500000 13.500000
vertex -134.875000 -98.500000 13.500000
endloop
endfacet
facet normal 0.000000 0.000000 1.000000
outer loop
vertex -133.375000 -99.500000 13.500000
vertex -134.875000 -98.500000 13.500000
vertex -131.541672 -106.500000 13.500000
endloop
endfacet
facet normal 0.000000 0.000000 1.000000
outer loop
vertex -130.875000 -105.500000 13.500000
vertex -133.375000 -99.500000 13.500000
vertex -131.541672 -106.500000 13.500000
endloop
endfacet
facet normal -0.972807 0.231619 0.000000
outer loop
vertex -150.533646 -98.500000 12.000000
vertex -152.438400 -106.500000 12.000000
vertex -150.533646 -98.500000 13.500000
endloop
endfacet
facet normal -0.972807 0.231619 0.000000
outer loop
vertex -150.533646 -98.500000 13.500000
vertex -152.438400 -106.500000 12.000000
vertex -152.438400 -106.500000 13.500000
endloop
endfacet
facet normal 0.000000 -1.000000 0.000000
outer loop
vertex -152.438400 -106.500000 12.000000
vertex -134.625000 -106.500000 12.000000
vertex -152.438400 -106.500000 13.500000
endloop
endfacet
facet normal 0.000000 -1.000000 0.000000
outer loop
vertex -152.438400 -106.500000 13.500000
vertex -134.625000 -106.500000 12.000000
vertex -134.625000 -106.500000 13.500000
endloop
endfacet
facet normal 0.923078 0.384613 0.000000
outer loop
vertex -134.625000 -106.500000 12.000000
vertex -137.958328 -98.500000 12.000000
vertex -134.625000 -106.500000 13.500000
endloop
endfacet
facet normal 0.923076 0.384617 0.000000
outer loop
vertex -134.625000 -106.500000 13.500000
vertex -137.958328 -98.500000 12.000000
vertex -137.958328 -98.500000 13.500000
endloop
endfacet
facet normal 0.000000 -1.000000 0.000000
outer loop
vertex -138.625000 -99.500000 13.500000
vertex -149.743790 -99.500000 13.500000
vertex -138.625000 -99.500000 10.000000
endloop
endfacet
facet normal 0.000000 -1.000000 0.000000
outer loop
vertex -138.625000 -99.500000 10.000000
vertex -149.743790 -99.500000 13.500000
vertex -149.743790 -99.500000 10.000000
endloop
endfacet
facet normal 0.972806 -0.231621 0.000000
outer loop
vertex -149.743790 -99.500000 13.500000
vertex -151.172348 -105.500000 13.500000
vertex -149.743790 -99.500000 10.000000
endloop
endfacet
facet normal 0.972807 -0.231615 0.000000
outer loop
vertex -149.743790 -99.500000 10.000000
vertex -151.172348 -105.500000 13.500000
vertex -151.172348 -105.500000 10.000000
endloop
endfacet
facet normal 0.000000 1.000000 0.000000
outer loop
vertex -151.172348 -105.500000 13.500000
vertex -136.125000 -105.500000 13.500000
vertex -151.172348 -105.500000 10.000000
endloop
endfacet
facet normal 0.000000 1.000000 0.000000
outer loop
vertex -151.172348 -105.500000 10.000000
vertex -136.125000 -105.500000 13.500000
vertex -136.125000 -105.500000 10.000000
endloop
endfacet
facet normal -0.923077 -0.384615 0.000000
outer loop
vertex -136.125000 -105.500000 13.500000
vertex -138.625000 -99.500000 13.500000
vertex -136.125000 -105.500000 10.000000
endloop
endfacet
facet normal -0.923077 -0.384615 0.000000
outer loop
vertex -136.125000 -105.500000 10.000000
vertex -138.625000 -99.500000 13.500000
vertex -138.625000 -99.500000 10.000000
endloop
endfacet
facet normal 0.000000 1.000000 0.000000
outer loop
vertex -137.958328 -98.500000 12.000000
vertex -150.533646 -98.500000 12.000000
vertex -137.958328 -98.500000 13.500000
endloop
endfacet
facet normal 0.000000 1.000000 0.000000
outer loop
vertex -137.958328 -98.500000 13.500000
vertex -150.533646 -98.500000 12.000000
vertex -150.533646 -98.500000 13.500000
endloop
endfacet
facet normal 0.000000 0.000000 1.000000
outer loop
vertex -149.743790 -99.500000 13.500000
vertex -138.625000 -99.500000 13.500000
vertex -137.958328 -98.500000 13.500000
endloop
endfacet
facet normal 0.000000 0.000000 1.000000
outer loop
vertex -137.958328 -98.500000 13.500000
vertex -138.625000 -99.500000 13.500000
vertex -136.125000 -105.500000 13.500000
endloop
endfacet
facet normal 0.000000 0.000000 1.000000
outer loop
vertex -137.958328 -98.500000 13.500000
vertex -136.125000 -105.500000 13.500000
vertex -134.625000 -106.500000 13.500000
endloop
endfacet
facet normal 0.000000 0.000000 1.000000
outer loop
vertex -134.625000 -106.500000 13.500000
vertex -136.125000 -105.500000 13.500000
vertex -152.438400 -106.500000 13.500000
endloop
endfacet
facet normal 0.000000 0.000000 1.000000
outer loop
vertex -152.438400 -106.500000 13.500000
vertex -136.125000 -105.500000 13.500000
vertex -151.172348 -105.500000 13.500000
endloop
endfacet
facet normal 0.000000 0.000000 1.000000
outer loop
vertex -152.438400 -106.500000 13.500000
vertex -151.172348 -105.500000 13.500000
vertex -150.533646 -98.500000 13.500000
endloop
endfacet
facet normal 0.000000 0.000000 1.000000
outer loop
vertex -150.533646 -98.500000 13.500000
vertex -151.172348 -105.500000 13.500000
vertex -149.743790 -99.500000 13.500000
endloop
endfacet
facet normal 0.000000 0.000000 1.000000
outer loop
vertex -150.533646 -98.500000 13.500000
vertex -149.743790 -99.500000 13.500000
vertex -137.958328 -98.500000 13.500000
endloop
endfacet
facet normal 0.948683 -0.316227 0.000000
outer loop
vertex -112.225151 -96.000000 12.000000
vertex -116.558479 -109.000000 12.000000
vertex -112.225151 -96.000000 10.000000
endloop
endfacet
facet normal 0.948683 -0.316227 0.000000
outer loop
vertex -112.225151 -96.000000 10.000000
vertex -116.558479 -109.000000 12.000000
vertex -116.558479 -109.000000 10.000000
endloop
endfacet
facet normal -0.948683 0.316228 0.000000
outer loop
vertex -191.774857 -109.000000 12.000000
vertex -187.441513 -96.000000 12.000000
vertex -191.774857 -109.000000 10.000000
endloop
endfacet
facet normal -0.948683 0.316228 0.000000
outer loop
vertex -191.774857 -109.000000 10.000000
vertex -187.441513 -96.000000 12.000000
vertex -187.441513 -96.000000 10.000000
endloop
endfacet
facet normal 0.000000 0.000000 1.000000
outer loop
vertex -167.540497 -106.500000 12.000000
vertex -191.774857 -110.000000 12.000000
vertex -155.466354 -106.500000 12.000000
endloop
endfacet
facet normal 0.000000 0.000000 1.000000
outer loop
vertex -155.466354 -106.500000 12.000000
vertex -191.774857 -110.000000 12.000000
vertex -116.558479 -110.000000 12.000000
endloop
endfacet
facet normal 0.000000 0.000000 1.000000
outer loop
vertex -155.466354 -106.500000 12.000000
vertex -116.558479 -110.000000 12.000000
vertex -152.438400 -106.500000 12.000000
endloop
endfacet
facet normal 0.000000 0.000000 1.000000
outer loop
vertex -152.438400 -106.500000 12.000000
vertex -116.558479 -110.000000 12.000000
vertex -134.625000 -106.500000 12.000000
endloop
endfacet
facet normal 0.000000 0.000000 1.000000
outer loop
vertex -134.625000 -106.500000 12.000000
vertex -116.558479 -110.000000 12.000000
vertex -131.541672 -106.500000 12.000000
endloop
endfacet
facet normal 0.000000 0.000000 1.000000
outer loop
vertex -134.625000 -106.500000 12.000000
vertex -131.541672 -106.500000 12.000000
vertex -134.875000 -98.500000 12.000000
endloop
endfacet
facet normal 0.000000 0.000000 1.000000
outer loop
vertex -191.774857 -110.000000 12.000000
vertex -167.540497 -106.500000 12.000000
vertex -170.602356 -106.500000 12.000000
endloop
endfacet
facet normal 0.000000 0.000000 1.000000
outer loop
vertex -170.602356 -106.500000 12.000000
vertex -167.540497 -106.500000 12.000000
vertex -170.397644 -98.500000 12.000000
endloop
endfacet
facet normal 0.000000 0.000000 1.000000
outer loop
vertex -170.602356 -106.500000 12.000000
vertex -170.397644 -98.500000 12.000000
vertex -173.459503 -98.500000 12.000000
endloop
endfacet
facet normal 0.000000 0.000000 1.000000
outer loop
vertex -173.459503 -98.500000 12.000000
vertex -170.397644 -98.500000 12.000000
vertex -187.441513 -96.000000 12.000000
endloop
endfacet
facet normal 0.000000 0.000000 1.000000
outer loop
vertex -173.459503 -98.500000 12.000000
vertex -187.441513 -96.000000 12.000000
vertex -185.639618 -98.500000 12.000000
endloop
endfacet
facet normal 0.000000 0.000000 1.000000
outer loop
vertex -185.639618 -98.500000 12.000000
vertex -187.441513 -96.000000 12.000000
vertex -188.306290 -106.500000 12.000000
endloop
endfacet
facet normal 0.000000 0.000000 1.000000
outer loop
vertex -188.306290 -106.500000 12.000000
vertex -187.441513 -96.000000 12.000000
vertex -191.774857 -109.000000 12.000000
endloop
endfacet
facet normal 0.000000 0.000000 1.000000
outer loop
vertex -188.306290 -106.500000 12.000000
vertex -191.774857 -109.000000 12.000000
vertex -170.602356 -106.500000 12.000000
endloop
endfacet
facet normal 0.000000 0.000000 1.000000
outer loop
vertex -170.602356 -106.500000 12.000000
vertex -191.774857 -109.000000 12.000000
vertex -191.774857 -110.000000 12.000000
endloop
endfacet
facet normal 0.000000 0.000000 1.000000
outer loop
vertex -187.441513 -96.000000 12.000000
vertex -170.397644 -98.500000 12.000000
vertex -187.441513 -94.000000 12.000000
endloop
endfacet
facet normal 0.000000 0.000000 1.000000
outer loop
vertex -187.441513 -94.000000 12.000000
vertex -170.397644 -98.500000 12.000000
vertex -153.561600 -98.500000 12.000000
endloop
endfacet
facet normal 0.000000 0.000000 1.000000
outer loop
vertex -187.441513 -94.000000 12.000000
vertex -153.561600 -98.500000 12.000000
vertex -150.533646 -98.500000 12.000000
endloop
endfacet
facet normal 0.000000 0.000000 1.000000
outer loop
vertex -150.533646 -98.500000 12.000000
vertex -153.561600 -98.500000 12.000000
vertex -152.438400 -106.500000 12.000000
endloop
endfacet
facet normal 0.000000 0.000000 1.000000
outer loop
vertex -152.438400 -106.500000 12.000000
vertex -153.561600 -98.500000 12.000000
vertex -155.466354 -106.500000 12.000000
endloop
endfacet
facet normal 0.000000 0.000000 1.000000
outer loop
vertex -187.441513 -94.000000 12.000000
vertex -150.533646 -98.500000 12.000000
vertex -112.225151 -94.000000 12.000000
endloop
endfacet
facet normal 0.000000 0.000000 1.000000
outer loop
vertex -112.225151 -94.000000 12.000000
vertex -150.533646 -98.500000 12.000000
vertex -137.958328 -98.500000 12.000000
endloop
endfacet
facet normal 0.000000 0.000000 1.000000
outer loop
vertex -112.225151 -94.000000 12.000000
vertex -137.958328 -98.500000 12.000000
vertex -134.875000 -98.500000 12.000000
endloop
endfacet
facet normal 0.000000 0.000000 1.000000
outer loop
vertex -134.875000 -98.500000 12.000000
vertex -137.958328 -98.500000 12.000000
vertex -134.625000 -106.500000 12.000000
endloop
endfacet
facet normal 0.000000 0.000000 1.000000
outer loop
vertex -112.225151 -94.000000 12.000000
vertex -134.875000 -98.500000 12.000000
vertex -112.225151 -96.000000 12.000000
endloop
endfacet
facet normal 0.000000 0.000000 1.000000
outer loop
vertex -112.225151 -96.000000 12.000000
vertex -134.875000 -98.500000 12.000000
vertex -115.693710 -98.500000 12.000000
endloop
endfacet
facet normal 0.000000 0.000000 1.000000
outer loop
vertex -112.225151 -96.000000 12.000000
vertex -115.693710 -98.500000 12.000000
vertex -116.558479 -109.000000 12.000000
endloop
endfacet
facet normal 0.000000 0.000000 1.000000
outer loop
vertex -116.558479 -109.000000 12.000000
vertex -115.693710 -98.500000 12.000000
vertex -118.360382 -106.500000 12.000000
endloop
endfacet
facet normal 0.000000 0.000000 1.000000
outer loop
vertex -116.558479 -109.000000 12.000000
vertex -118.360382 -106.500000 12.000000
vertex -131.541672 -106.500000 12.000000
endloop
endfacet
facet normal 0.000000 0.000000 1.000000
outer loop
vertex -116.558479 -110.000000 12.000000
vertex -116.558479 -109.000000 12.000000
vertex -131.541672 -106.500000 12.000000
endloop
endfacet
endsolid HUAYU BIG FAN to MSI Pulse76 v1.002
