solid MSI Pulse76 CPU Repalcement v2
facet normal 0.000000 0.000000 1.000000
outer loop
vertex 0.000000 0.000000 0.743590
vertex 76.000000 0.000000 0.743590
vertex 0.000000 75.704483 0.743590
endloop
endfacet
facet normal 0.000000 0.000000 1.000000
outer loop
vertex 0.000000 75.704483 0.743590
vertex 76.000000 0.000000 0.743590
vertex 76.000000 75.704483 0.743590
endloop
endfacet
facet normal 0.000000 -1.000000 0.000000
outer loop
vertex 72.000000 -2.000000 0.000000
vertex 78.000000 -2.000000 0.000000
vertex 72.000000 -2.000000 22.000000
endloop
endfacet
facet normal 0.000000 -1.000000 0.000000
outer loop
vertex 72.000000 -2.000000 22.000000
vertex 78.000000 -2.000000 0.000000
vertex 78.000000 -2.000000 30.000000
endloop
endfacet
facet normal 0.000000 -1.000000 0.000000
outer loop
vertex 72.000000 -2.000000 22.000000
vertex 78.000000 -2.000000 30.000000
vertex -2.000000 -2.000000 30.000000
endloop
endfacet
facet normal 0.000000 -1.000000 0.000000
outer loop
vertex -2.000000 -2.000000 30.000000
vertex -2.000000 -2.000000 22.000000
vertex 72.000000 -2.000000 22.000000
endloop
endfacet
facet normal 0.000000 1.000000 0.000000
outer loop
vertex 76.000000 0.000000 28.297768
vertex 76.000000 0.000000 0.743590
vertex 69.500000 0.000000 13.150045
endloop
endfacet
facet normal 0.000000 1.000000 0.000000
outer loop
vertex 69.500000 0.000000 13.150045
vertex 76.000000 0.000000 0.743590
vertex 0.000000 0.000000 0.743590
endloop
endfacet
facet normal 0.000000 1.000000 0.000000
outer loop
vertex 69.500000 0.000000 13.150045
vertex 0.000000 0.000000 0.743590
vertex 0.500000 0.000000 13.150045
endloop
endfacet
facet normal 0.000000 1.000000 0.000000
outer loop
vertex 0.500000 0.000000 13.150045
vertex 0.000000 0.000000 0.743590
vertex 0.000000 0.000000 28.297768
endloop
endfacet
facet normal 0.000000 1.000000 0.000000
outer loop
vertex 0.500000 0.000000 13.150045
vertex 0.000000 0.000000 28.297768
vertex 0.500000 0.000000 19.500000
endloop
endfacet
facet normal 0.000000 1.000000 0.000000
outer loop
vertex 0.500000 0.000000 19.500000
vertex 0.000000 0.000000 28.297768
vertex 69.500000 0.000000 19.500000
endloop
endfacet
facet normal 0.000000 1.000000 0.000000
outer loop
vertex 69.500000 0.000000 19.500000
vertex 0.000000 0.000000 28.297768
vertex 76.000000 0.000000 28.297768
endloop
endfacet
facet normal 0.000000 1.000000 0.000000
outer loop
vertex 69.500000 0.000000 19.500000
vertex 76.000000 0.000000 28.297768
vertex 69.500000 0.000000 13.150045
endloop
endfacet
facet normal 1.000000 0.000000 0.000000
outer loop
vertex 0.000000 75.704483 0.743590
vertex 0.000000 75.000000 1.000000
vertex 0.000000 0.000000 0.743590
endloop
endfacet
facet normal 1.000000 0.000000 0.000000
outer loop
vertex 0.000000 0.000000 0.743590
vertex 0.000000 75.000000 1.000000
vertex 0.000000 0.000000 28.297768
endloop
endfacet
facet normal 0.000000 0.939838 -0.341620
outer loop
vertex 78.000000 77.828560 0.000000
vertex 78.000000 77.819077 -0.026060
vertex -2.000000 77.828560 0.000000
endloop
endfacet
facet normal 0.000000 0.939697 -0.342009
outer loop
vertex -2.000000 77.828560 0.000000
vertex 78.000000 77.819077 -0.026060
vertex -2.000000 77.819077 -0.026060
endloop
endfacet
facet normal 0.000000 -0.342023 -0.939692
outer loop
vertex 0.000000 75.704483 0.743590
vertex 76.000000 75.704483 0.743590
vertex 0.000000 75.000000 1.000000
endloop
endfacet
facet normal 0.000000 -0.342017 -0.939694
outer loop
vertex 0.000000 75.000000 1.000000
vertex 76.000000 75.704483 0.743590
vertex 76.000000 75.000000 1.000000
endloop
endfacet
facet normal 0.000000 0.342021 0.939692
outer loop
vertex -2.000000 75.410423 2.127631
vertex 78.000000 75.410423 2.127631
vertex -2.000000 78.229500 1.101571
endloop
endfacet
facet normal 0.000000 0.342020 0.939693
outer loop
vertex -2.000000 78.229500 1.101571
vertex 78.000000 75.410423 2.127631
vertex 78.000000 78.229500 1.101571
endloop
endfacet
facet normal 0.000000 -0.341995 -0.939702
outer loop
vertex 78.000000 77.747475 0.000000
vertex -2.000000 77.747475 0.000000
vertex 78.000000 77.819077 -0.026060
endloop
endfacet
facet normal 0.000000 -0.341995 -0.939702
outer loop
vertex 78.000000 77.819077 -0.026060
vertex -2.000000 77.747475 0.000000
vertex -2.000000 77.819077 -0.026060
endloop
endfacet
facet normal 0.000000 0.939696 -0.342011
outer loop
vertex -2.000000 77.848999 0.056142
vertex -2.000000 78.229500 1.101571
vertex 78.000000 77.848999 0.056142
endloop
endfacet
facet normal 0.000000 0.939692 -0.342021
outer loop
vertex 78.000000 77.848999 0.056142
vertex -2.000000 78.229500 1.101571
vertex 78.000000 78.229500 1.101571
endloop
endfacet
facet normal 0.000000 0.348494 0.937311
outer loop
vertex 78.000000 77.848999 0.056142
vertex 78.000000 78.000000 0.000000
vertex -2.000000 77.848999 0.056142
endloop
endfacet
facet normal 0.000000 0.348494 0.937311
outer loop
vertex -2.000000 77.848999 0.056142
vertex 78.000000 78.000000 0.000000
vertex -2.000000 78.000000 0.000000
endloop
endfacet
facet normal 0.000000 0.000000 -1.000000
outer loop
vertex 78.000000 -2.000000 0.000000
vertex 72.000000 -2.000000 0.000000
vertex 78.000000 77.747475 0.000000
endloop
endfacet
facet normal 0.000000 0.000000 -1.000000
outer loop
vertex 78.000000 77.747475 0.000000
vertex 72.000000 -2.000000 0.000000
vertex -2.000000 77.747475 0.000000
endloop
endfacet
facet normal 0.000000 0.000000 -1.000000
outer loop
vertex -2.000000 77.747475 0.000000
vertex 72.000000 -2.000000 0.000000
vertex -2.000000 -4.000000 0.000000
endloop
endfacet
facet normal 0.000000 0.000000 -1.000000
outer loop
vertex -2.000000 -4.000000 0.000000
vertex 72.000000 -2.000000 0.000000
vertex 72.000000 -4.000000 0.000000
endloop
endfacet
facet normal -1.000000 0.000000 0.000000
outer loop
vertex 76.000000 75.704483 0.743590
vertex 76.000000 0.000000 0.743590
vertex 76.000000 75.000000 1.000000
endloop
endfacet
facet normal -1.000000 0.000000 0.000000
outer loop
vertex 76.000000 75.000000 1.000000
vertex 76.000000 0.000000 0.743590
vertex 76.000000 0.000000 28.297768
endloop
endfacet
facet normal 1.000000 0.000000 0.000000
outer loop
vertex 70.000000 -4.000000 13.000000
vertex 70.000000 -4.000000 20.000000
vertex 70.000000 -6.000000 13.352654
endloop
endfacet
facet normal 1.000000 0.000000 0.000000
outer loop
vertex 70.000000 -6.000000 13.352654
vertex 70.000000 -4.000000 20.000000
vertex 70.000000 -6.000000 20.000000
endloop
endfacet
facet normal 0.000000 0.000000 1.000000
outer loop
vertex 70.000000 -4.000000 20.000000
vertex 0.000000 -4.000000 20.000000
vertex 70.000000 -6.000000 20.000000
endloop
endfacet
facet normal 0.000000 0.000000 1.000000
outer loop
vertex 70.000000 -6.000000 20.000000
vertex 0.000000 -4.000000 20.000000
vertex 0.000000 -6.000000 20.000000
endloop
endfacet
facet normal 0.000000 -0.173648 -0.984808
outer loop
vertex 0.000000 -4.000000 13.000000
vertex 70.000000 -4.000000 13.000000
vertex 0.000000 -6.000000 13.352654
endloop
endfacet
facet normal 0.000000 -0.173648 -0.984808
outer loop
vertex 0.000000 -6.000000 13.352654
vertex 70.000000 -4.000000 13.000000
vertex 70.000000 -6.000000 13.352654
endloop
endfacet
facet normal -1.000000 0.000000 0.000000
outer loop
vertex 0.000000 -4.000000 13.000000
vertex 0.000000 -6.000000 13.352654
vertex 0.000000 -4.000000 20.000000
endloop
endfacet
facet normal -1.000000 0.000000 0.000000
outer loop
vertex 0.000000 -4.000000 20.000000
vertex 0.000000 -6.000000 13.352654
vertex 0.000000 -6.000000 20.000000
endloop
endfacet
facet normal 0.000000 -1.000000 0.000000
outer loop
vertex 0.500000 -6.000000 13.674977
vertex 0.000000 -6.000000 13.352654
vertex 69.500000 -6.000000 13.674977
endloop
endfacet
facet normal 0.000000 -1.000000 0.000000
outer loop
vertex 69.500000 -6.000000 13.674977
vertex 0.000000 -6.000000 13.352654
vertex 70.000000 -6.000000 13.352654
endloop
endfacet
facet normal 0.000000 -1.000000 0.000000
outer loop
vertex 69.500000 -6.000000 13.674977
vertex 70.000000 -6.000000 13.352654
vertex 69.500000 -6.000000 19.500000
endloop
endfacet
facet normal 0.000000 -1.000000 0.000000
outer loop
vertex 69.500000 -6.000000 19.500000
vertex 70.000000 -6.000000 13.352654
vertex 70.000000 -6.000000 20.000000
endloop
endfacet
facet normal 0.000000 -1.000000 0.000000
outer loop
vertex 69.500000 -6.000000 19.500000
vertex 70.000000 -6.000000 20.000000
vertex 0.000000 -6.000000 20.000000
endloop
endfacet
facet normal 0.000000 -1.000000 0.000000
outer loop
vertex 0.500000 -6.000000 13.674977
vertex 0.500000 -6.000000 19.500000
vertex 0.000000 -6.000000 13.352654
endloop
endfacet
facet normal 0.000000 -1.000000 0.000000
outer loop
vertex 0.000000 -6.000000 13.352654
vertex 0.500000 -6.000000 19.500000
vertex 0.000000 -6.000000 20.000000
endloop
endfacet
facet normal 0.000000 -1.000000 0.000000
outer loop
vertex 0.000000 -6.000000 20.000000
vertex 0.500000 -6.000000 19.500000
vertex 69.500000 -6.000000 19.500000
endloop
endfacet
facet normal 0.000000 0.000000 1.000000
outer loop
vertex 72.000000 -2.000000 22.000000
vertex -2.000000 -2.000000 22.000000
vertex 72.000000 -4.000000 22.000000
endloop
endfacet
facet normal 0.000000 0.000000 1.000000
outer loop
vertex 72.000000 -4.000000 22.000000
vertex -2.000000 -2.000000 22.000000
vertex -2.000000 -4.000000 22.000000
endloop
endfacet
facet normal 1.000000 0.000000 0.000000
outer loop
vertex 72.000000 -2.000000 0.000000
vertex 72.000000 -2.000000 22.000000
vertex 72.000000 -4.000000 0.000000
endloop
endfacet
facet normal 1.000000 0.000000 0.000000
outer loop
vertex 72.000000 -4.000000 0.000000
vertex 72.000000 -2.000000 22.000000
vertex 72.000000 -4.000000 22.000000
endloop
endfacet
facet normal 0.000000 -1.000000 0.000000
outer loop
vertex 0.000000 -4.000000 20.000000
vertex -2.000000 -4.000000 22.000000
vertex 0.000000 -4.000000 13.000000
endloop
endfacet
facet normal 0.000000 -1.000000 0.000000
outer loop
vertex 0.000000 -4.000000 13.000000
vertex -2.000000 -4.000000 22.000000
vertex -2.000000 -4.000000 0.000000
endloop
endfacet
facet normal 0.000000 -1.000000 0.000000
outer loop
vertex 0.000000 -4.000000 13.000000
vertex -2.000000 -4.000000 0.000000
vertex 70.000000 -4.000000 13.000000
endloop
endfacet
facet normal 0.000000 -1.000000 0.000000
outer loop
vertex 70.000000 -4.000000 13.000000
vertex -2.000000 -4.000000 0.000000
vertex 72.000000 -4.000000 0.000000
endloop
endfacet
facet normal 0.000000 -1.000000 0.000000
outer loop
vertex 70.000000 -4.000000 13.000000
vertex 72.000000 -4.000000 0.000000
vertex 72.000000 -4.000000 22.000000
endloop
endfacet
facet normal 0.000000 -1.000000 0.000000
outer loop
vertex 0.000000 -4.000000 20.000000
vertex 70.000000 -4.000000 20.000000
vertex -2.000000 -4.000000 22.000000
endloop
endfacet
facet normal 0.000000 -1.000000 0.000000
outer loop
vertex -2.000000 -4.000000 22.000000
vertex 70.000000 -4.000000 20.000000
vertex 72.000000 -4.000000 22.000000
endloop
endfacet
facet normal 0.000000 -1.000000 0.000000
outer loop
vertex 72.000000 -4.000000 22.000000
vertex 70.000000 -4.000000 20.000000
vertex 70.000000 -4.000000 13.000000
endloop
endfacet
facet normal 0.000000 0.939692 -0.342022
outer loop
vertex 76.000000 0.050157 28.981352
vertex 78.000000 0.050157 28.981352
vertex 76.000000 0.000000 28.843546
endloop
endfacet
facet normal 0.000001 0.939692 -0.342021
outer loop
vertex 76.000000 0.000000 28.843546
vertex 78.000000 0.050157 28.981352
vertex 78.000000 -0.175410 28.361612
endloop
endfacet
facet normal 0.000000 0.939693 -0.342020
outer loop
vertex 76.000000 0.000000 28.843546
vertex 78.000000 -0.175410 28.361612
vertex -2.000000 -0.175410 28.361612
endloop
endfacet
facet normal 0.000000 0.939693 -0.342020
outer loop
vertex 76.000000 0.000000 28.843546
vertex -2.000000 -0.175410 28.361612
vertex 0.000000 0.000000 28.843546
endloop
endfacet
facet normal -0.000001 0.939692 -0.342021
outer loop
vertex 0.000000 0.000000 28.843546
vertex -2.000000 -0.175410 28.361612
vertex -2.000000 0.050157 28.981352
endloop
endfacet
facet normal 0.000000 0.939692 -0.342022
outer loop
vertex 0.000000 0.000000 28.843546
vertex -2.000000 0.050157 28.981352
vertex 0.000000 0.050157 28.981352
endloop
endfacet
facet normal 0.000000 -0.939691 0.342025
outer loop
vertex -2.000000 75.000000 1.000000
vertex 0.000000 75.000000 1.000000
vertex -2.000000 75.410423 2.127631
endloop
endfacet
facet normal 0.000000 -0.939692 0.342022
outer loop
vertex -2.000000 75.410423 2.127631
vertex 0.000000 75.000000 1.000000
vertex 76.000000 75.000000 1.000000
endloop
endfacet
facet normal 0.000000 -0.939694 0.342016
outer loop
vertex -2.000000 75.410423 2.127631
vertex 76.000000 75.000000 1.000000
vertex 78.000000 75.410423 2.127631
endloop
endfacet
facet normal 0.000000 -0.939691 0.342025
outer loop
vertex 78.000000 75.410423 2.127631
vertex 76.000000 75.000000 1.000000
vertex 78.000000 75.000000 1.000000
endloop
endfacet
facet normal 0.000000 0.342021 0.939692
outer loop
vertex 76.000000 75.000000 1.000000
vertex 76.000000 0.000000 28.297768
vertex 78.000000 75.000000 1.000000
endloop
endfacet
facet normal -0.000001 0.342019 0.939693
outer loop
vertex 78.000000 75.000000 1.000000
vertex 76.000000 0.000000 28.297768
vertex 78.000000 -0.175410 28.361612
endloop
endfacet
facet normal 0.000000 0.342024 0.939691
outer loop
vertex 78.000000 -0.175410 28.361612
vertex 76.000000 0.000000 28.297768
vertex 0.000000 0.000000 28.297768
endloop
endfacet
facet normal 0.000000 0.342024 0.939691
outer loop
vertex 78.000000 -0.175410 28.361612
vertex 0.000000 0.000000 28.297768
vertex -2.000000 -0.175410 28.361612
endloop
endfacet
facet normal 0.000000 0.342020 0.939693
outer loop
vertex -2.000000 -0.175410 28.361612
vertex 0.000000 0.000000 28.297768
vertex -2.000000 75.000000 1.000000
endloop
endfacet
facet normal 0.000000 0.342020 0.939693
outer loop
vertex -2.000000 75.000000 1.000000
vertex 0.000000 0.000000 28.297768
vertex 0.000000 75.000000 1.000000
endloop
endfacet
facet normal 1.000000 0.000000 0.000000
outer loop
vertex 78.000000 78.000000 0.000000
vertex 78.000000 77.848999 0.056142
vertex 78.000000 77.828560 0.000000
endloop
endfacet
facet normal 1.000000 0.000000 0.000000
outer loop
vertex 78.000000 77.828560 0.000000
vertex 78.000000 77.848999 0.056142
vertex 78.000000 77.747475 0.000000
endloop
endfacet
facet normal 1.000000 0.000000 0.000000
outer loop
vertex 78.000000 77.828560 0.000000
vertex 78.000000 77.747475 0.000000
vertex 78.000000 77.819077 -0.026060
endloop
endfacet
facet normal 1.000000 0.000000 0.000000
outer loop
vertex 78.000000 77.747475 0.000000
vertex 78.000000 77.848999 0.056142
vertex 78.000000 75.000000 1.000000
endloop
endfacet
facet normal 1.000000 0.000000 0.000000
outer loop
vertex 78.000000 75.000000 1.000000
vertex 78.000000 77.848999 0.056142
vertex 78.000000 78.229500 1.101571
endloop
endfacet
facet normal 1.000000 0.000000 0.000000
outer loop
vertex 78.000000 75.000000 1.000000
vertex 78.000000 78.229500 1.101571
vertex 78.000000 75.410423 2.127631
endloop
endfacet
facet normal 1.000000 0.000000 0.000000
outer loop
vertex 78.000000 77.747475 0.000000
vertex 78.000000 75.000000 1.000000
vertex 78.000000 -2.000000 0.000000
endloop
endfacet
facet normal 1.000000 0.000000 0.000000
outer loop
vertex 78.000000 -2.000000 0.000000
vertex 78.000000 75.000000 1.000000
vertex 78.000000 -0.175410 28.361612
endloop
endfacet
facet normal 1.000000 -0.000002 0.000000
outer loop
vertex 78.000000 -2.000000 0.000000
vertex 78.000000 -0.175410 28.361612
vertex 78.000000 -2.000000 30.000000
endloop
endfacet
facet normal 1.000000 -0.000005 0.000000
outer loop
vertex 78.000000 -2.000000 30.000000
vertex 78.000000 -0.175410 28.361612
vertex 78.000000 0.000000 29.000000
endloop
endfacet
facet normal 1.000000 0.000000 0.000000
outer loop
vertex 78.000000 -2.000000 30.000000
vertex 78.000000 0.000000 29.000000
vertex 78.000000 0.000000 30.000000
endloop
endfacet
facet normal 1.000000 0.000000 0.000000
outer loop
vertex 78.000000 -0.175410 28.361612
vertex 78.000000 0.050157 28.981352
vertex 78.000000 0.000000 29.000000
endloop
endfacet
facet normal -1.000000 0.000000 0.000000
outer loop
vertex 76.000000 0.050157 28.981352
vertex 76.000000 0.000000 28.843546
vertex 76.000000 0.000000 29.000000
endloop
endfacet
facet normal 0.000000 1.000000 0.000000
outer loop
vertex 76.000000 0.000000 28.843546
vertex 0.000000 0.000000 28.843546
vertex 76.000000 0.000000 29.000000
endloop
endfacet
facet normal 0.000000 1.000000 0.000000
outer loop
vertex 76.000000 0.000000 29.000000
vertex 0.000000 0.000000 28.843546
vertex 0.000000 0.000000 29.000000
endloop
endfacet
facet normal 0.000000 1.000000 0.000000
outer loop
vertex 76.000000 0.000000 29.000000
vertex 0.000000 0.000000 29.000000
vertex 78.000000 0.000000 30.000000
endloop
endfacet
facet normal 0.000000 1.000000 0.000000
outer loop
vertex 78.000000 0.000000 30.000000
vertex 0.000000 0.000000 29.000000
vertex -2.000000 0.000000 30.000000
endloop
endfacet
facet normal 0.000000 1.000000 0.000000
outer loop
vertex -2.000000 0.000000 30.000000
vertex 0.000000 0.000000 29.000000
vertex -2.000000 0.000000 29.000000
endloop
endfacet
facet normal 0.000000 1.000000 0.000000
outer loop
vertex 78.000000 0.000000 30.000000
vertex 78.000000 0.000000 29.000000
vertex 76.000000 0.000000 29.000000
endloop
endfacet
facet normal 1.000000 0.000000 0.000000
outer loop
vertex 0.000000 0.000000 28.843546
vertex 0.000000 0.050157 28.981352
vertex 0.000000 0.000000 29.000000
endloop
endfacet
facet normal 0.000000 0.348486 0.937314
outer loop
vertex -2.000000 0.050157 28.981352
vertex -2.000000 0.000000 29.000000
vertex 0.000000 0.050157 28.981352
endloop
endfacet
facet normal 0.000000 0.348486 0.937314
outer loop
vertex 0.000000 0.050157 28.981352
vertex -2.000000 0.000000 29.000000
vertex 0.000000 0.000000 29.000000
endloop
endfacet
facet normal 0.000000 0.348486 0.937314
outer loop
vertex 76.000000 0.050157 28.981352
vertex 76.000000 0.000000 29.000000
vertex 78.000000 0.050157 28.981352
endloop
endfacet
facet normal 0.000000 0.348486 0.937314
outer loop
vertex 78.000000 0.050157 28.981352
vertex 76.000000 0.000000 29.000000
vertex 78.000000 0.000000 29.000000
endloop
endfacet
facet normal -1.000000 0.000000 0.000000
outer loop
vertex 69.500000 -6.000000 19.500000
vertex 69.500000 0.000000 19.500000
vertex 69.500000 -6.000000 13.674977
endloop
endfacet
facet normal -1.000000 0.000000 0.000000
outer loop
vertex 69.500000 -6.000000 13.674977
vertex 69.500000 0.000000 19.500000
vertex 69.500000 0.000000 13.150045
endloop
endfacet
facet normal 0.000000 0.087156 0.996195
outer loop
vertex 69.500000 0.000000 13.150045
vertex 0.500000 0.000000 13.150045
vertex 69.500000 -6.000000 13.674977
endloop
endfacet
facet normal 0.000000 0.087156 0.996195
outer loop
vertex 69.500000 -6.000000 13.674977
vertex 0.500000 0.000000 13.150045
vertex 0.500000 -6.000000 13.674977
endloop
endfacet
facet normal 1.000000 0.000000 0.000000
outer loop
vertex 0.500000 0.000000 13.150045
vertex 0.500000 0.000000 19.500000
vertex 0.500000 -6.000000 13.674977
endloop
endfacet
facet normal 1.000000 0.000000 0.000000
outer loop
vertex 0.500000 -6.000000 13.674977
vertex 0.500000 0.000000 19.500000
vertex 0.500000 -6.000000 19.500000
endloop
endfacet
facet normal 0.000000 0.000000 -1.000000
outer loop
vertex 0.500000 0.000000 19.500000
vertex 69.500000 0.000000 19.500000
vertex 0.500000 -6.000000 19.500000
endloop
endfacet
facet normal 0.000000 0.000000 -1.000000
outer loop
vertex 0.500000 -6.000000 19.500000
vertex 69.500000 0.000000 19.500000
vertex 69.500000 -6.000000 19.500000
endloop
endfacet
facet normal -1.000000 0.000000 0.000000
outer loop
vertex -2.000000 78.000000 0.000000
vertex -2.000000 77.828560 0.000000
vertex -2.000000 77.848999 0.056142
endloop
endfacet
facet normal -1.000000 0.000000 0.000000
outer loop
vertex -2.000000 77.848999 0.056142
vertex -2.000000 77.828560 0.000000
vertex -2.000000 77.747475 0.000000
endloop
endfacet
facet normal -1.000000 0.000000 0.000000
outer loop
vertex -2.000000 77.848999 0.056142
vertex -2.000000 77.747475 0.000000
vertex -2.000000 75.000000 1.000000
endloop
endfacet
facet normal -1.000000 0.000000 0.000000
outer loop
vertex -2.000000 75.000000 1.000000
vertex -2.000000 77.747475 0.000000
vertex -2.000000 -4.000000 0.000000
endloop
endfacet
facet normal -1.000000 0.000000 0.000000
outer loop
vertex -2.000000 75.000000 1.000000
vertex -2.000000 -4.000000 0.000000
vertex -2.000000 -2.000000 22.000000
endloop
endfacet
facet normal -1.000000 0.000000 0.000000
outer loop
vertex -2.000000 -2.000000 22.000000
vertex -2.000000 -4.000000 0.000000
vertex -2.000000 -4.000000 22.000000
endloop
endfacet
facet normal -1.000000 0.000000 0.000000
outer loop
vertex -2.000000 77.828560 0.000000
vertex -2.000000 77.819077 -0.026060
vertex -2.000000 77.747475 0.000000
endloop
endfacet
facet normal -1.000000 0.000000 0.000000
outer loop
vertex -2.000000 75.000000 1.000000
vertex -2.000000 -2.000000 22.000000
vertex -2.000000 -0.175410 28.361612
endloop
endfacet
facet normal -1.000000 0.000000 0.000000
outer loop
vertex -2.000000 -0.175410 28.361612
vertex -2.000000 -2.000000 22.000000
vertex -2.000000 -2.000000 30.000000
endloop
endfacet
facet normal -1.000000 0.000000 0.000000
outer loop
vertex -2.000000 -0.175410 28.361612
vertex -2.000000 -2.000000 30.000000
vertex -2.000000 0.000000 29.000000
endloop
endfacet
facet normal -1.000000 0.000000 0.000000
outer loop
vertex -2.000000 0.000000 29.000000
vertex -2.000000 -2.000000 30.000000
vertex -2.000000 0.000000 30.000000
endloop
endfacet
facet normal -1.000000 0.000000 0.000000
outer loop
vertex -2.000000 0.000000 29.000000
vertex -2.000000 0.050157 28.981352
vertex -2.000000 -0.175410 28.361612
endloop
endfacet
facet normal -1.000000 0.000000 0.000000
outer loop
vertex -2.000000 75.410423 2.127631
vertex -2.000000 78.229500 1.101571
vertex -2.000000 75.000000 1.000000
endloop
endfacet
facet normal -1.000000 0.000000 0.000000
outer loop
vertex -2.000000 75.000000 1.000000
vertex -2.000000 78.229500 1.101571
vertex -2.000000 77.848999 0.056142
endloop
endfacet
facet normal 0.000000 0.000000 1.000000
outer loop
vertex 78.000000 0.000000 30.000000
vertex -2.000000 0.000000 30.000000
vertex 78.000000 -2.000000 30.000000
endloop
endfacet
facet normal 0.000000 0.000000 1.000000
outer loop
vertex 78.000000 -2.000000 30.000000
vertex -2.000000 0.000000 30.000000
vertex -2.000000 -2.000000 30.000000
endloop
endfacet
facet normal 0.000000 0.000000 -1.000000
outer loop
vertex 78.000000 77.828560 0.000000
vertex -2.000000 77.828560 0.000000
vertex 78.000000 78.000000 0.000000
endloop
endfacet
facet normal 0.000000 0.000000 -1.000000
outer loop
vertex 78.000000 78.000000 0.000000
vertex -2.000000 77.828560 0.000000
vertex -2.000000 78.000000 0.000000
endloop
endfacet
endsolid MSI Pulse76 CPU Repalcement v2
