solid HUAYU BIG FAN to MSI Pulse76 v6.003
facet normal 0.964933 -0.262495 0.000003
outer loop
vertex 224.358673 11.441020 0.999915
vertex 226.671356 19.942518 0.999853
vertex 225.174911 14.441571 3.999893
endloop
endfacet
facet normal 0.964933 -0.262496 0.000002
outer loop
vertex 225.174911 14.441571 3.999893
vertex 226.671356 19.942518 0.999853
vertex 226.671356 19.942541 3.999852
endloop
endfacet
facet normal 0.000647 -1.000000 0.000009
outer loop
vertex 244.411011 19.954000 0.999852
vertex 258.730042 19.963270 0.999852
vertex 244.411011 19.954023 3.999852
endloop
endfacet
facet normal 0.000647 -1.000000 0.000007
outer loop
vertex 244.411011 19.954023 3.999852
vertex 258.730042 19.963270 0.999852
vertex 258.730042 19.963293 3.999852
endloop
endfacet
facet normal 0.000647 -1.000000 0.000008
outer loop
vertex 263.874207 19.966599 0.999852
vertex 274.620056 19.973555 0.999852
vertex 263.874207 19.966621 3.999852
endloop
endfacet
facet normal 0.000647 -1.000000 0.000009
outer loop
vertex 263.874207 19.966621 3.999852
vertex 274.620056 19.973555 0.999852
vertex 274.620056 19.973577 3.999852
endloop
endfacet
facet normal 0.000647 -1.000000 0.000007
outer loop
vertex 226.671356 19.942518 0.999853
vertex 239.215302 19.950638 0.999852
vertex 226.671356 19.942541 3.999852
endloop
endfacet
facet normal 0.000647 -1.000000 0.000007
outer loop
vertex 226.671356 19.942541 3.999852
vertex 239.215302 19.950638 0.999852
vertex 239.215302 19.950661 3.999852
endloop
endfacet
facet normal -0.000458 0.707101 -0.707112
outer loop
vertex 241.918732 11.452386 0.999915
vertex 224.358673 11.441020 0.999915
vertex 241.901321 12.452383 1.999908
endloop
endfacet
facet normal -0.000458 0.707102 -0.707112
outer loop
vertex 241.901321 12.452383 1.999908
vertex 224.358673 11.441020 0.999915
vertex 225.174911 14.441571 3.999893
endloop
endfacet
facet normal -0.000458 0.707102 -0.707112
outer loop
vertex 241.901321 12.452383 1.999908
vertex 225.174911 14.441571 3.999893
vertex 241.185043 14.451934 3.999893
endloop
endfacet
facet normal 0.000458 -0.707101 0.707112
outer loop
vertex 223.997177 13.540809 3.999900
vertex 223.453018 11.540442 1.999915
vertex 242.463150 13.552761 3.999900
endloop
endfacet
facet normal 0.000458 -0.707102 0.707112
outer loop
vertex 242.463150 13.552761 3.999900
vertex 223.453018 11.540442 1.999915
vertex 243.179413 11.553210 1.999915
endloop
endfacet
facet normal -0.000000 0.000007 1.000000
outer loop
vertex 225.174911 14.441571 3.999893
vertex 223.997177 13.540809 3.999900
vertex 241.185043 14.451934 3.999893
endloop
endfacet
facet normal 0.000000 0.000007 1.000000
outer loop
vertex 241.185043 14.451934 3.999893
vertex 223.997177 13.540809 3.999900
vertex 242.463150 13.552761 3.999900
endloop
endfacet
facet normal 0.000000 0.000007 1.000000
outer loop
vertex 241.185043 14.451934 3.999893
vertex 242.463150 13.552761 3.999900
vertex 239.848755 20.851072 3.999846
endloop
endfacet
facet normal 0.000001 0.000007 1.000000
outer loop
vertex 223.997177 13.540809 3.999900
vertex 225.174911 14.441571 3.999893
vertex 225.983353 20.842096 3.999846
endloop
endfacet
facet normal 0.000000 0.000007 1.000000
outer loop
vertex 225.983353 20.842096 3.999846
vertex 225.174911 14.441571 3.999893
vertex 226.671356 19.942541 3.999852
endloop
endfacet
facet normal 0.000000 0.000007 1.000000
outer loop
vertex 225.983353 20.842096 3.999846
vertex 226.671356 19.942541 3.999852
vertex 239.848755 20.851072 3.999846
endloop
endfacet
facet normal 0.000000 0.000007 1.000000
outer loop
vertex 239.848755 20.851072 3.999846
vertex 226.671356 19.942541 3.999852
vertex 239.215302 19.950661 3.999852
endloop
endfacet
facet normal 0.000000 0.000007 1.000000
outer loop
vertex 239.848755 20.851072 3.999846
vertex 239.215302 19.950661 3.999852
vertex 241.185043 14.451934 3.999893
endloop
endfacet
facet normal 0.000000 1.000000 -0.000008
outer loop
vertex 220.494843 22.000015 1.999837
vertex 280.899628 22.000015 1.999837
vertex 220.494843 22.000008 0.999837
endloop
endfacet
facet normal 0.000000 1.000000 -0.000008
outer loop
vertex 220.494843 22.000008 0.999837
vertex 280.899628 22.000015 1.999837
vertex 280.899628 22.000008 0.999837
endloop
endfacet
facet normal 0.000000 0.000007 1.000000
outer loop
vertex 275.162842 20.873915 1.999846
vertex 280.899628 22.000015 1.999837
vertex 263.212738 20.866179 1.999846
endloop
endfacet
facet normal 0.000000 0.000008 1.000000
outer loop
vertex 263.212738 20.866179 1.999846
vertex 280.899628 22.000015 1.999837
vertex 259.955048 20.864071 1.999846
endloop
endfacet
facet normal 0.000000 0.000007 1.000000
outer loop
vertex 263.212738 20.866179 1.999846
vertex 259.955048 20.864071 1.999846
vertex 260.451660 12.045303 1.999911
endloop
endfacet
facet normal -0.000000 0.000007 1.000000
outer loop
vertex 260.451660 12.045303 1.999911
vertex 259.955048 20.864071 1.999846
vertex 257.167908 11.959817 1.999912
endloop
endfacet
facet normal 0.000000 0.000007 1.000000
outer loop
vertex 260.451660 12.045303 1.999911
vertex 257.167908 11.959817 1.999912
vertex 288.896057 0.000015 2.000000
endloop
endfacet
facet normal -0.000000 0.000007 1.000000
outer loop
vertex 288.896057 0.000015 2.000000
vertex 257.167908 11.959817 1.999912
vertex 246.448181 11.714742 1.999913
endloop
endfacet
facet normal 0.000000 0.000007 1.000000
outer loop
vertex 288.896057 0.000015 2.000000
vertex 246.448181 11.714742 1.999913
vertex 216.081482 0.000015 2.000000
endloop
endfacet
facet normal 0.000000 0.000007 1.000000
outer loop
vertex 216.081482 0.000015 2.000000
vertex 246.448181 11.714742 1.999913
vertex 243.179413 11.553210 1.999915
endloop
endfacet
facet normal 0.000000 0.000007 1.000000
outer loop
vertex 216.081482 0.000015 2.000000
vertex 243.179413 11.553210 1.999915
vertex 215.941956 5.263392 1.999961
endloop
endfacet
facet normal -0.000000 0.000007 1.000000
outer loop
vertex 215.941956 5.263392 1.999961
vertex 243.179413 11.553210 1.999915
vertex 223.453018 11.540442 1.999915
endloop
endfacet
facet normal 0.000000 0.000007 1.000000
outer loop
vertex 215.941956 5.263392 1.999961
vertex 223.453018 11.540442 1.999915
vertex 220.494843 22.000015 1.999837
endloop
endfacet
facet normal 0.000000 0.000007 1.000000
outer loop
vertex 220.494843 22.000015 1.999837
vertex 223.453018 11.540442 1.999915
vertex 225.983353 20.842081 1.999846
endloop
endfacet
facet normal -0.000000 0.000007 1.000000
outer loop
vertex 220.494843 22.000015 1.999837
vertex 225.983353 20.842081 1.999846
vertex 239.848755 20.851057 1.999846
endloop
endfacet
facet normal 0.000000 0.000007 1.000000
outer loop
vertex 275.162842 20.873915 1.999846
vertex 279.549896 12.551593 1.999907
vertex 280.899628 22.000015 1.999837
endloop
endfacet
facet normal -0.000000 0.000007 1.000000
outer loop
vertex 280.899628 22.000015 1.999837
vertex 279.549896 12.551593 1.999907
vertex 288.705414 7.192336 1.999947
endloop
endfacet
facet normal -0.000000 0.000007 1.000000
outer loop
vertex 288.705414 7.192336 1.999947
vertex 279.549896 12.551593 1.999907
vertex 260.451660 12.045303 1.999911
endloop
endfacet
facet normal -0.000000 0.000007 1.000000
outer loop
vertex 288.705414 7.192336 1.999947
vertex 260.451660 12.045303 1.999911
vertex 288.896057 0.000015 2.000000
endloop
endfacet
facet normal 0.000000 0.000008 1.000000
outer loop
vertex 220.494843 22.000015 1.999837
vertex 239.848755 20.851057 1.999846
vertex 243.126572 20.853178 1.999846
endloop
endfacet
facet normal 0.000000 0.000007 1.000000
outer loop
vertex 243.126572 20.853178 1.999846
vertex 239.848755 20.851057 1.999846
vertex 243.179413 11.553210 1.999915
endloop
endfacet
facet normal -0.000000 0.000007 1.000000
outer loop
vertex 243.126572 20.853178 1.999846
vertex 243.179413 11.553210 1.999915
vertex 246.448181 11.714742 1.999913
endloop
endfacet
facet normal 0.000000 0.000007 1.000000
outer loop
vertex 220.494843 22.000015 1.999837
vertex 243.126572 20.853178 1.999846
vertex 280.899628 22.000015 1.999837
endloop
endfacet
facet normal -0.000000 0.000008 1.000000
outer loop
vertex 280.899628 22.000015 1.999837
vertex 243.126572 20.853178 1.999846
vertex 259.955048 20.864071 1.999846
endloop
endfacet
facet normal -0.000647 1.000000 -0.000008
outer loop
vertex 263.212738 20.866194 3.999846
vertex 275.162842 20.873930 3.999846
vertex 263.212738 20.866179 1.999846
endloop
endfacet
facet normal -0.000647 1.000000 -0.000008
outer loop
vertex 263.212738 20.866179 1.999846
vertex 275.162842 20.873930 3.999846
vertex 275.162842 20.873915 1.999846
endloop
endfacet
facet normal 0.000000 -1.000000 0.000007
outer loop
vertex 216.081482 0.000007 1.000000
vertex 288.896057 0.000007 1.000000
vertex 216.081482 0.000015 2.000000
endloop
endfacet
facet normal 0.000000 -1.000000 0.000007
outer loop
vertex 216.081482 0.000015 2.000000
vertex 288.896057 0.000007 1.000000
vertex 288.896057 0.000015 2.000000
endloop
endfacet
facet normal -0.964935 0.262489 -0.000001
outer loop
vertex 223.453018 11.540442 1.999915
vertex 223.997177 13.540809 3.999900
vertex 225.983353 20.842081 1.999846
endloop
endfacet
facet normal -0.964934 0.262493 -0.000002
outer loop
vertex 225.983353 20.842081 1.999846
vertex 223.997177 13.540809 3.999900
vertex 225.983353 20.842096 3.999846
endloop
endfacet
facet normal -0.000647 1.000000 -0.000009
outer loop
vertex 239.848755 20.851057 1.999846
vertex 225.983353 20.842081 1.999846
vertex 239.848755 20.851072 3.999846
endloop
endfacet
facet normal -0.000647 1.000000 -0.000007
outer loop
vertex 239.848755 20.851072 3.999846
vertex 225.983353 20.842081 1.999846
vertex 225.983353 20.842096 3.999846
endloop
endfacet
facet normal 0.941420 0.337237 -0.000006
outer loop
vertex 243.179413 11.553210 1.999915
vertex 239.848755 20.851057 1.999846
vertex 242.463150 13.552761 3.999900
endloop
endfacet
facet normal 0.941422 0.337230 -0.000003
outer loop
vertex 242.463150 13.552761 3.999900
vertex 239.848755 20.851057 1.999846
vertex 239.848755 20.851072 3.999846
endloop
endfacet
facet normal 0.954343 -0.298711 0.000000
outer loop
vertex 257.167908 11.959817 1.999912
vertex 259.955048 20.864071 1.999846
vertex 257.798615 13.974773 3.999897
endloop
endfacet
facet normal 0.954341 -0.298720 0.000002
outer loop
vertex 257.798615 13.974773 3.999897
vertex 259.955048 20.864071 1.999846
vertex 259.955048 20.864086 3.999846
endloop
endfacet
facet normal 0.016162 -0.706916 0.707113
outer loop
vertex 246.448181 11.714742 1.999913
vertex 257.167908 11.959817 1.999912
vertex 245.727036 13.698792 3.999899
endloop
endfacet
facet normal 0.016162 -0.706918 0.707111
outer loop
vertex 245.727036 13.698792 3.999899
vertex 257.167908 11.959817 1.999912
vertex 257.798615 13.974773 3.999897
endloop
endfacet
facet normal -0.939841 -0.341612 0.000005
outer loop
vertex 246.448181 11.714742 1.999913
vertex 245.727036 13.698792 3.999899
vertex 243.126572 20.853178 1.999846
endloop
endfacet
facet normal -0.939841 -0.341611 0.000003
outer loop
vertex 243.126572 20.853178 1.999846
vertex 245.727036 13.698792 3.999899
vertex 243.126572 20.853193 3.999846
endloop
endfacet
facet normal -0.000647 1.000000 -0.000009
outer loop
vertex 259.955048 20.864071 1.999846
vertex 243.126572 20.853178 1.999846
vertex 259.955048 20.864086 3.999846
endloop
endfacet
facet normal -0.000647 1.000000 -0.000007
outer loop
vertex 259.955048 20.864086 3.999846
vertex 243.126572 20.853178 1.999846
vertex 243.126572 20.853193 3.999846
endloop
endfacet
facet normal -0.954339 0.298727 0.000002
outer loop
vertex 260.451660 12.045303 1.999911
vertex 261.083160 14.062760 3.999896
vertex 263.212738 20.866179 1.999846
endloop
endfacet
facet normal -0.954340 0.298723 -0.000002
outer loop
vertex 263.212738 20.866179 1.999846
vertex 261.083160 14.062760 3.999896
vertex 263.212738 20.866194 3.999846
endloop
endfacet
facet normal 0.884612 0.466327 0.000000
outer loop
vertex 279.549896 12.551593 1.999907
vertex 275.162842 20.873915 1.999846
vertex 278.509766 14.524736 3.999892
endloop
endfacet
facet normal 0.884617 0.466318 -0.000004
outer loop
vertex 278.509766 14.524736 3.999892
vertex 275.162842 20.873915 1.999846
vertex 275.162842 20.873930 3.999846
endloop
endfacet
facet normal 0.018739 -0.706854 0.707111
outer loop
vertex 279.549896 12.551593 1.999907
vertex 278.509766 14.524736 3.999892
vertex 260.451660 12.045303 1.999911
endloop
endfacet
facet normal 0.018739 -0.706854 0.707112
outer loop
vertex 260.451660 12.045303 1.999911
vertex 278.509766 14.524736 3.999892
vertex 261.083160 14.062760 3.999896
endloop
endfacet
facet normal 0.000000 0.000007 1.000000
outer loop
vertex 258.730042 19.963293 3.999852
vertex 259.955048 20.864086 3.999846
vertex 244.411011 19.954023 3.999852
endloop
endfacet
facet normal -0.000000 0.000007 1.000000
outer loop
vertex 244.411011 19.954023 3.999852
vertex 259.955048 20.864086 3.999846
vertex 243.126572 20.853193 3.999846
endloop
endfacet
facet normal 0.000000 0.000007 1.000000
outer loop
vertex 244.411011 19.954023 3.999852
vertex 243.126572 20.853193 3.999846
vertex 245.727036 13.698792 3.999899
endloop
endfacet
facet normal 0.000000 0.000007 1.000000
outer loop
vertex 259.955048 20.864086 3.999846
vertex 258.730042 19.963293 3.999852
vertex 257.798615 13.974773 3.999897
endloop
endfacet
facet normal 0.000000 0.000007 1.000000
outer loop
vertex 257.798615 13.974773 3.999897
vertex 258.730042 19.963293 3.999852
vertex 257.132568 14.859781 3.999890
endloop
endfacet
facet normal 0.000000 0.000008 1.000000
outer loop
vertex 257.798615 13.974773 3.999897
vertex 257.132568 14.859781 3.999890
vertex 246.352234 14.613320 3.999892
endloop
endfacet
facet normal 0.000000 0.000007 1.000000
outer loop
vertex 257.798615 13.974773 3.999897
vertex 246.352234 14.613320 3.999892
vertex 245.727036 13.698792 3.999899
endloop
endfacet
facet normal 0.000000 0.000007 1.000000
outer loop
vertex 245.727036 13.698792 3.999899
vertex 246.352234 14.613320 3.999892
vertex 244.411011 19.954023 3.999852
endloop
endfacet
facet normal 0.999649 0.026501 -0.000000
outer loop
vertex 288.896057 0.000015 2.000000
vertex 288.896057 0.000007 1.000000
vertex 288.705414 7.192336 1.999947
endloop
endfacet
facet normal 0.999649 0.026494 -0.000000
outer loop
vertex 288.705414 7.192336 1.999947
vertex 288.896057 0.000007 1.000000
vertex 288.705414 7.192328 0.999947
endloop
endfacet
facet normal 0.884616 0.466320 -0.000004
outer loop
vertex 280.899628 22.000015 1.999837
vertex 288.705414 7.192336 1.999947
vertex 280.899628 22.000008 0.999837
endloop
endfacet
facet normal 0.884616 0.466320 -0.000003
outer loop
vertex 280.899628 22.000008 0.999837
vertex 288.705414 7.192336 1.999947
vertex 288.705414 7.192328 0.999947
endloop
endfacet
facet normal -0.964934 0.262492 -0.000002
outer loop
vertex 220.494843 22.000008 0.999837
vertex 215.941956 5.263385 0.999961
vertex 220.494843 22.000015 1.999837
endloop
endfacet
facet normal -0.964934 0.262494 -0.000002
outer loop
vertex 220.494843 22.000015 1.999837
vertex 215.941956 5.263385 0.999961
vertex 215.941956 5.263392 1.999961
endloop
endfacet
facet normal -0.999649 -0.026505 0.000000
outer loop
vertex 216.081482 0.000007 1.000000
vertex 216.081482 0.000015 2.000000
vertex 215.941956 5.263385 0.999961
endloop
endfacet
facet normal -0.999649 -0.026495 0.000000
outer loop
vertex 215.941956 5.263385 0.999961
vertex 216.081482 0.000015 2.000000
vertex 215.941956 5.263392 1.999961
endloop
endfacet
facet normal -0.941420 -0.337238 0.000003
outer loop
vertex 239.215302 19.950661 3.999852
vertex 239.215302 19.950638 0.999852
vertex 241.185043 14.451934 3.999893
endloop
endfacet
facet normal -0.941419 -0.337238 -0.000000
outer loop
vertex 241.185043 14.451934 3.999893
vertex 239.215302 19.950638 0.999852
vertex 241.901321 12.452383 1.999908
endloop
endfacet
facet normal -0.941422 -0.337231 0.000012
outer loop
vertex 241.901321 12.452383 1.999908
vertex 239.215302 19.950638 0.999852
vertex 242.255402 11.463901 0.999915
endloop
endfacet
facet normal -0.024170 0.706691 -0.707109
outer loop
vertex 242.255402 11.463901 0.999915
vertex 241.918732 11.452386 0.999915
vertex 241.901321 12.452383 1.999908
endloop
endfacet
facet normal -0.018206 0.706870 -0.707109
outer loop
vertex 261.712921 11.978696 0.999911
vertex 261.371124 11.969893 0.999911
vertex 261.686798 12.978362 1.999904
endloop
endfacet
facet normal 0.954341 -0.298718 0.000002
outer loop
vertex 263.874207 19.966621 3.999852
vertex 262.318268 14.995820 3.999889
vertex 263.874207 19.966599 0.999852
endloop
endfacet
facet normal 0.954342 -0.298716 0.000008
outer loop
vertex 263.874207 19.966599 0.999852
vertex 262.318268 14.995820 3.999889
vertex 261.686798 12.978362 1.999904
endloop
endfacet
facet normal 0.954339 -0.298725 -0.000008
outer loop
vertex 263.874207 19.966599 0.999852
vertex 261.686798 12.978362 1.999904
vertex 261.371124 11.969893 0.999911
endloop
endfacet
facet normal -0.954341 0.298719 -0.000002
outer loop
vertex 258.730042 19.963293 3.999852
vertex 258.730042 19.963270 0.999852
vertex 257.132568 14.859781 3.999890
endloop
endfacet
facet normal -0.954340 0.298721 0.000001
outer loop
vertex 257.132568 14.859781 3.999890
vertex 258.730042 19.963270 0.999852
vertex 256.186493 11.837346 0.999912
endloop
endfacet
facet normal -0.016162 0.706916 -0.707113
outer loop
vertex 247.433960 11.637244 0.999914
vertex 246.352234 14.613320 3.999892
vertex 256.186493 11.837346 0.999912
endloop
endfacet
facet normal -0.016162 0.706919 -0.707110
outer loop
vertex 256.186493 11.837346 0.999912
vertex 246.352234 14.613320 3.999892
vertex 257.132568 14.859781 3.999890
endloop
endfacet
facet normal 0.939842 0.341611 -0.000003
outer loop
vertex 247.433960 11.637244 0.999914
vertex 244.411011 19.954000 0.999852
vertex 246.352234 14.613320 3.999892
endloop
endfacet
facet normal 0.939840 0.341614 -0.000003
outer loop
vertex 246.352234 14.613320 3.999892
vertex 244.411011 19.954000 0.999852
vertex 244.411011 19.954023 3.999852
endloop
endfacet
facet normal 0.000000 0.000007 1.000000
outer loop
vertex 262.318268 14.995820 3.999889
vertex 278.509766 14.524736 3.999892
vertex 277.038330 15.386045 3.999886
endloop
endfacet
facet normal 0.000000 0.000007 1.000000
outer loop
vertex 277.038330 15.386045 3.999886
vertex 278.509766 14.524736 3.999892
vertex 275.162842 20.873930 3.999846
endloop
endfacet
facet normal 0.000001 0.000007 1.000000
outer loop
vertex 277.038330 15.386045 3.999886
vertex 275.162842 20.873930 3.999846
vertex 274.620056 19.973577 3.999852
endloop
endfacet
facet normal 0.000000 0.000007 1.000000
outer loop
vertex 274.620056 19.973577 3.999852
vertex 275.162842 20.873930 3.999846
vertex 263.874207 19.966621 3.999852
endloop
endfacet
facet normal -0.000000 0.000007 1.000000
outer loop
vertex 263.874207 19.966621 3.999852
vertex 275.162842 20.873930 3.999846
vertex 263.212738 20.866194 3.999846
endloop
endfacet
facet normal 0.000000 0.000007 1.000000
outer loop
vertex 263.874207 19.966621 3.999852
vertex 263.212738 20.866194 3.999846
vertex 262.318268 14.995820 3.999889
endloop
endfacet
facet normal -0.000001 0.000007 1.000000
outer loop
vertex 262.318268 14.995820 3.999889
vertex 263.212738 20.866194 3.999846
vertex 261.083160 14.062760 3.999896
endloop
endfacet
facet normal 0.000000 0.000007 1.000000
outer loop
vertex 262.318268 14.995820 3.999889
vertex 261.083160 14.062760 3.999896
vertex 278.509766 14.524736 3.999892
endloop
endfacet
facet normal -0.018739 0.706853 -0.707112
outer loop
vertex 262.318268 14.995820 3.999889
vertex 277.038330 15.386045 3.999886
vertex 261.686798 12.978362 1.999904
endloop
endfacet
facet normal -0.018739 0.706853 -0.707112
outer loop
vertex 261.686798 12.978362 1.999904
vertex 277.038330 15.386045 3.999886
vertex 278.598511 12.426330 0.999908
endloop
endfacet
facet normal -0.018739 0.706852 -0.707114
outer loop
vertex 261.686798 12.978362 1.999904
vertex 278.598511 12.426330 0.999908
vertex 261.712921 11.978696 0.999911
endloop
endfacet
facet normal 0.000000 -0.000007 -1.000000
outer loop
vertex 239.215302 19.950638 0.999852
vertex 226.671356 19.942518 0.999853
vertex 220.494843 22.000008 0.999837
endloop
endfacet
facet normal 0.000000 -0.000007 -1.000000
outer loop
vertex 220.494843 22.000008 0.999837
vertex 226.671356 19.942518 0.999853
vertex 224.358673 11.441020 0.999915
endloop
endfacet
facet normal 0.000000 -0.000007 -1.000000
outer loop
vertex 220.494843 22.000008 0.999837
vertex 224.358673 11.441020 0.999915
vertex 215.941956 5.263385 0.999961
endloop
endfacet
facet normal 0.000000 -0.000007 -1.000000
outer loop
vertex 215.941956 5.263385 0.999961
vertex 224.358673 11.441020 0.999915
vertex 241.918732 11.452386 0.999915
endloop
endfacet
facet normal 0.000000 -0.000007 -1.000000
outer loop
vertex 215.941956 5.263385 0.999961
vertex 241.918732 11.452386 0.999915
vertex 216.081482 0.000007 1.000000
endloop
endfacet
facet normal 0.000000 -0.000008 -1.000000
outer loop
vertex 216.081482 0.000007 1.000000
vertex 241.918732 11.452386 0.999915
vertex 242.255402 11.463901 0.999915
endloop
endfacet
facet normal -0.000000 -0.000007 -1.000000
outer loop
vertex 216.081482 0.000007 1.000000
vertex 242.255402 11.463901 0.999915
vertex 247.433960 11.637244 0.999914
endloop
endfacet
facet normal -0.000000 -0.000007 -1.000000
outer loop
vertex 247.433960 11.637244 0.999914
vertex 242.255402 11.463901 0.999915
vertex 244.411011 19.954000 0.999852
endloop
endfacet
facet normal 0.000000 -0.000007 -1.000000
outer loop
vertex 244.411011 19.954000 0.999852
vertex 242.255402 11.463901 0.999915
vertex 239.215302 19.950638 0.999852
endloop
endfacet
facet normal 0.000000 -0.000007 -1.000000
outer loop
vertex 244.411011 19.954000 0.999852
vertex 239.215302 19.950638 0.999852
vertex 220.494843 22.000008 0.999837
endloop
endfacet
facet normal 0.000000 -0.000007 -1.000000
outer loop
vertex 216.081482 0.000007 1.000000
vertex 247.433960 11.637244 0.999914
vertex 288.896057 0.000007 1.000000
endloop
endfacet
facet normal 0.000000 -0.000007 -1.000000
outer loop
vertex 288.896057 0.000007 1.000000
vertex 247.433960 11.637244 0.999914
vertex 256.186493 11.837346 0.999912
endloop
endfacet
facet normal 0.000000 -0.000007 -1.000000
outer loop
vertex 288.896057 0.000007 1.000000
vertex 256.186493 11.837346 0.999912
vertex 261.371124 11.969893 0.999911
endloop
endfacet
facet normal 0.000000 -0.000007 -1.000000
outer loop
vertex 261.371124 11.969893 0.999911
vertex 256.186493 11.837346 0.999912
vertex 258.730042 19.963270 0.999852
endloop
endfacet
facet normal 0.000000 -0.000007 -1.000000
outer loop
vertex 261.371124 11.969893 0.999911
vertex 258.730042 19.963270 0.999852
vertex 263.874207 19.966599 0.999852
endloop
endfacet
facet normal 0.000000 -0.000007 -1.000000
outer loop
vertex 263.874207 19.966599 0.999852
vertex 258.730042 19.963270 0.999852
vertex 280.899628 22.000008 0.999837
endloop
endfacet
facet normal 0.000000 -0.000007 -1.000000
outer loop
vertex 263.874207 19.966599 0.999852
vertex 280.899628 22.000008 0.999837
vertex 274.620056 19.973555 0.999852
endloop
endfacet
facet normal 0.000000 -0.000007 -1.000000
outer loop
vertex 274.620056 19.973555 0.999852
vertex 280.899628 22.000008 0.999837
vertex 278.598511 12.426330 0.999908
endloop
endfacet
facet normal 0.000000 -0.000007 -1.000000
outer loop
vertex 278.598511 12.426330 0.999908
vertex 280.899628 22.000008 0.999837
vertex 288.705414 7.192328 0.999947
endloop
endfacet
facet normal 0.000000 -0.000007 -1.000000
outer loop
vertex 278.598511 12.426330 0.999908
vertex 288.705414 7.192328 0.999947
vertex 261.712921 11.978696 0.999911
endloop
endfacet
facet normal 0.000000 -0.000007 -1.000000
outer loop
vertex 261.712921 11.978696 0.999911
vertex 288.705414 7.192328 0.999947
vertex 261.371124 11.969893 0.999911
endloop
endfacet
facet normal 0.000000 -0.000007 -1.000000
outer loop
vertex 261.371124 11.969893 0.999911
vertex 288.705414 7.192328 0.999947
vertex 288.896057 0.000007 1.000000
endloop
endfacet
facet normal -0.000000 -0.000007 -1.000000
outer loop
vertex 258.730042 19.963270 0.999852
vertex 244.411011 19.954000 0.999852
vertex 280.899628 22.000008 0.999837
endloop
endfacet
facet normal 0.000000 -0.000007 -1.000000
outer loop
vertex 280.899628 22.000008 0.999837
vertex 244.411011 19.954000 0.999852
vertex 220.494843 22.000008 0.999837
endloop
endfacet
facet normal -0.884616 -0.466320 0.000003
outer loop
vertex 278.598511 12.426330 0.999908
vertex 277.038330 15.386045 3.999886
vertex 274.620056 19.973555 0.999852
endloop
endfacet
facet normal -0.884622 -0.466308 0.000003
outer loop
vertex 274.620056 19.973555 0.999852
vertex 277.038330 15.386045 3.999886
vertex 274.620056 19.973577 3.999852
endloop
endfacet
endsolid HUAYU BIG FAN to MSI Pulse76 v6.003
